<?xml version="1.0" encoding="UTF-8" standalone="no"?><!-- Generator: Gravit.io --><svg xmlns="http://www.w3.org/2000/svg" xmlns:xlink="http://www.w3.org/1999/xlink" style="isolation:isolate" viewBox="0 0 1000 500" width="1000pt" height="500pt"><defs><clipPath id="_clipPath_rDBPtQOsgnKZVUqGIZZNQoRCBok6bzAy"><rect width="1000" height="500"/></clipPath></defs><g clip-path="url(#_clipPath_rDBPtQOsgnKZVUqGIZZNQoRCBok6bzAy)"><clipPath id="_clipPath_aXimf1eQ5NkqFB3SJiUI6YAoFXMkI7xm"><rect x="60.5" y="0" width="879" height="500" transform="matrix(1,0,0,1,0,0)" fill="rgb(255,255,255)"/></clipPath><g clip-path="url(#_clipPath_aXimf1eQ5NkqFB3SJiUI6YAoFXMkI7xm)"><g><g><rect x="289.194" y="37.857" width="619.306" height="401.788" transform="matrix(1,0,0,1,0,0)" fill="rgb(242,242,242)"/></g><g><g><g><clipPath id="_clipPath_6LQ0HvMGxks5IS2l7bsCd7kc3mCQlGuD"><rect x="288.788" y="37.857" width="621.153" height="401.788" transform="matrix(1,0,0,1,0,0)" fill="rgb(255,255,255)"/></clipPath><g clip-path="url(#_clipPath_6LQ0HvMGxks5IS2l7bsCd7kc3mCQlGuD)"><g><g><g><g><g><path d=" M 288.788 67.992 L 474.546 67.992 L 474.546 88.081 L 288.788 88.081" fill="none" vector-effect="non-scaling-stroke" stroke-width="2" stroke="rgb(84,210,154)" stroke-opacity="100" stroke-linejoin="miter" stroke-linecap="butt" stroke-miterlimit="2"/></g></g><g><g><path d=" M 288.788 108.17 L 525.849 108.17 L 525.849 128.259 L 288.788 128.259" fill="none" vector-effect="non-scaling-stroke" stroke-width="2" stroke="rgb(84,210,154)" stroke-opacity="100" stroke-linejoin="miter" stroke-linecap="butt" stroke-miterlimit="2"/></g></g><g><g><path d=" M 474.546 78.036 L 546.504 78.036 L 546.504 118.215 L 525.849 118.215" fill="none" vector-effect="non-scaling-stroke" stroke-width="2" stroke="rgb(84,210,154)" stroke-opacity="100" stroke-linejoin="miter" stroke-linecap="butt" stroke-miterlimit="2"/></g></g><g><g><path d=" M 288.788 47.902 L 562.593 47.902 L 562.593 98.125 L 546.504 98.125" fill="none" vector-effect="non-scaling-stroke" stroke-width="2" stroke="rgb(84,210,154)" stroke-opacity="100" stroke-linejoin="miter" stroke-linecap="butt" stroke-miterlimit="2"/></g></g><g><g><path d=" M 288.788 168.439 L 459.711 168.439 L 459.711 188.527 L 288.788 188.527" fill="none" vector-effect="non-scaling-stroke" stroke-width="2" stroke="rgb(84,210,154)" stroke-opacity="100" stroke-linejoin="miter" stroke-linecap="butt" stroke-miterlimit="2"/></g></g><g><g><path d=" M 288.788 148.349 L 482.128 148.349 L 482.128 178.484 L 459.711 178.484" fill="none" vector-effect="non-scaling-stroke" stroke-width="2" stroke="rgb(84,210,154)" stroke-opacity="100" stroke-linejoin="miter" stroke-linecap="butt" stroke-miterlimit="2"/></g></g><g><g><path d=" M 288.788 208.617 L 478.925 208.617 L 478.925 228.707 L 288.788 228.707" fill="none" vector-effect="non-scaling-stroke" stroke-width="2" stroke="rgb(84,210,154)" stroke-opacity="100" stroke-linejoin="miter" stroke-linecap="butt" stroke-miterlimit="2"/></g></g><g><g><path d=" M 288.788 248.796 L 492.335 248.796 L 492.335 268.885 L 288.788 268.885" fill="none" vector-effect="non-scaling-stroke" stroke-width="2" stroke="rgb(84,210,154)" stroke-opacity="100" stroke-linejoin="miter" stroke-linecap="butt" stroke-miterlimit="2"/></g></g><g><g><path d=" M 478.925 218.662 L 518.525 218.662 L 518.525 258.841 L 492.335 258.841" fill="none" vector-effect="non-scaling-stroke" stroke-width="2" stroke="rgb(84,210,154)" stroke-opacity="100" stroke-linejoin="miter" stroke-linecap="butt" stroke-miterlimit="2"/></g></g><g><g><path d=" M 482.128 163.416 L 572.916 163.416 L 572.916 238.752 L 518.525 238.752" fill="none" vector-effect="non-scaling-stroke" stroke-width="2" stroke="rgb(84,210,154)" stroke-opacity="100" stroke-linejoin="miter" stroke-linecap="butt" stroke-miterlimit="2"/></g></g><g><g><path d=" M 562.593 73.014 L 644.811 73.014 L 644.811 201.084 L 572.916 201.084" fill="none" vector-effect="non-scaling-stroke" stroke-width="2" stroke="rgb(84,210,154)" stroke-opacity="100" stroke-linejoin="miter" stroke-linecap="butt" stroke-miterlimit="2"/></g></g><g><g><path d=" M 288.788 329.154 L 435.043 329.154 L 435.043 349.243 L 288.788 349.243" fill="none" vector-effect="non-scaling-stroke" stroke-width="2" stroke="rgb(202,61,54)" stroke-opacity="10000" stroke-linejoin="miter" stroke-linecap="butt" stroke-miterlimit="2"/></g></g><g><g><path d=" M 288.788 309.064 L 474.021 309.064 L 474.021 339.199 L 435.043 339.199" fill="none" vector-effect="non-scaling-stroke" stroke-width="2" stroke="rgb(202,61,54)" stroke-opacity="10000" stroke-linejoin="miter" stroke-linecap="butt" stroke-miterlimit="2"/></g></g><g><g><path d=" M 288.788 288.975 L 574.224 288.975 L 574.224 324.132 L 474.021 324.132" fill="none" vector-effect="non-scaling-stroke" stroke-width="2" stroke="rgb(202,61,54)" stroke-opacity="10000" stroke-linejoin="miter" stroke-linecap="butt" stroke-miterlimit="2"/></g></g><g><g><path d=" M 288.788 369.332 L 523.971 369.332 L 523.971 389.422 L 288.788 389.422" fill="none" vector-effect="non-scaling-stroke" stroke-width="2" stroke="rgb(202,61,54)" stroke-opacity="10000" stroke-linejoin="miter" stroke-linecap="butt" stroke-miterlimit="2"/></g></g><g><g><path d=" M 288.788 409.512 L 600.316 409.512 L 600.316 429.6 L 288.788 429.6" fill="none" vector-effect="non-scaling-stroke" stroke-width="2" stroke="rgb(202,61,54)" stroke-opacity="10000" stroke-linejoin="miter" stroke-linecap="butt" stroke-miterlimit="2"/></g></g><g><g><path d=" M 523.971 379.377 L 624.424 379.377 L 624.424 419.556 L 600.316 419.556" fill="none" vector-effect="non-scaling-stroke" stroke-width="2" stroke="rgb(202,61,54)" stroke-opacity="10000" stroke-linejoin="miter" stroke-linecap="butt" stroke-miterlimit="2"/></g></g><g><g><path d=" M 574.224 306.553 L 796.211 306.553 L 796.211 399.467 L 624.424 399.467" fill="none" vector-effect="non-scaling-stroke" stroke-width="2" stroke="rgb(202,61,54)" stroke-opacity="10000" stroke-linejoin="miter" stroke-linecap="butt" stroke-miterlimit="2"/></g></g><g><g><path d=" M 644.811 137.048 L 817.39 137.048 L 909.94 137.048 L 909.94 353.01 L 796.211 353.01" fill="none" vector-effect="non-scaling-stroke" stroke-width="2" stroke="rgb(74,134,232)" stroke-opacity="100" stroke-linejoin="miter" stroke-linecap="butt" stroke-miterlimit="2"/></g></g></g></g></g></g><path d=" M 287.898 440.273 L 910.83 440.273 M 287.898 37.229 L 910.83 37.229" fill="none" vector-effect="non-scaling-stroke" stroke-width="1" stroke="rgb(235,240,248)" stroke-opacity="10000" stroke-linejoin="miter" stroke-linecap="butt" stroke-miterlimit="4"/><path d=" M 288.343 37.857 L 288.343 439.645 M 910.385 37.857 L 910.385 439.645" fill="none" vector-effect="non-scaling-stroke" stroke-width="1" stroke="rgb(235,240,248)" stroke-opacity="10000" stroke-linejoin="miter" stroke-linecap="butt" stroke-miterlimit="4"/></g><g><g><path d=" M 286.118 148.349 L 281.668 148.349 M 909.05 148.349 L 913.5 148.349" fill="rgb(0,0,0)" vector-effect="non-scaling-stroke" stroke-width="1" stroke="rgb(68,68,68)" stroke-opacity="10000" stroke-linejoin="miter" stroke-linecap="butt" stroke-miterlimit="4"/><path d=" M 286.118 168.439 L 281.668 168.439 M 909.05 168.439 L 913.5 168.439" fill="rgb(0,0,0)" vector-effect="non-scaling-stroke" stroke-width="1" stroke="rgb(68,68,68)" stroke-opacity="10000" stroke-linejoin="miter" stroke-linecap="butt" stroke-miterlimit="4"/><path d=" M 286.118 188.527 L 281.668 188.527 M 909.05 188.527 L 913.5 188.527" fill="rgb(0,0,0)" vector-effect="non-scaling-stroke" stroke-width="1" stroke="rgb(68,68,68)" stroke-opacity="10000" stroke-linejoin="miter" stroke-linecap="butt" stroke-miterlimit="4"/><path d=" M 286.118 208.617 L 281.668 208.617 M 909.05 208.617 L 913.5 208.617" fill="rgb(0,0,0)" vector-effect="non-scaling-stroke" stroke-width="1" stroke="rgb(68,68,68)" stroke-opacity="10000" stroke-linejoin="miter" stroke-linecap="butt" stroke-miterlimit="4"/><path d=" M 286.118 228.707 L 281.668 228.707 M 909.05 228.707 L 913.5 228.707" fill="rgb(0,0,0)" vector-effect="non-scaling-stroke" stroke-width="1" stroke="rgb(68,68,68)" stroke-opacity="10000" stroke-linejoin="miter" stroke-linecap="butt" stroke-miterlimit="4"/><path d=" M 286.118 248.796 L 281.668 248.796 M 909.05 248.796 L 913.5 248.796" fill="rgb(0,0,0)" vector-effect="non-scaling-stroke" stroke-width="1" stroke="rgb(68,68,68)" stroke-opacity="10000" stroke-linejoin="miter" stroke-linecap="butt" stroke-miterlimit="4"/><path d=" M 286.118 288.975 L 281.668 288.975 M 909.05 288.975 L 913.5 288.975" fill="rgb(0,0,0)" vector-effect="non-scaling-stroke" stroke-width="1" stroke="rgb(68,68,68)" stroke-opacity="10000" stroke-linejoin="miter" stroke-linecap="butt" stroke-miterlimit="4"/><path d=" M 286.118 309.064 L 281.668 309.064 M 909.05 309.064 L 913.5 309.064" fill="rgb(0,0,0)" vector-effect="non-scaling-stroke" stroke-width="1" stroke="rgb(68,68,68)" stroke-opacity="10000" stroke-linejoin="miter" stroke-linecap="butt" stroke-miterlimit="4"/><path d=" M 286.118 329.154 L 281.668 329.154 M 909.05 329.154 L 913.5 329.154" fill="rgb(0,0,0)" vector-effect="non-scaling-stroke" stroke-width="1" stroke="rgb(68,68,68)" stroke-opacity="10000" stroke-linejoin="miter" stroke-linecap="butt" stroke-miterlimit="4"/><path d=" M 286.118 349.243 L 281.668 349.243 M 909.05 349.243 L 913.5 349.243" fill="rgb(0,0,0)" vector-effect="non-scaling-stroke" stroke-width="1" stroke="rgb(68,68,68)" stroke-opacity="10000" stroke-linejoin="miter" stroke-linecap="butt" stroke-miterlimit="4"/><path d=" M 286.118 67.992 L 281.668 67.992 M 909.05 67.992 L 913.5 67.992" fill="rgb(0,0,0)" vector-effect="non-scaling-stroke" stroke-width="1" stroke="rgb(68,68,68)" stroke-opacity="10000" stroke-linejoin="miter" stroke-linecap="butt" stroke-miterlimit="4"/><path d=" M 286.118 47.902 L 281.668 47.902 M 909.05 47.902 L 913.5 47.902" fill="rgb(0,0,0)" vector-effect="non-scaling-stroke" stroke-width="1" stroke="rgb(68,68,68)" stroke-opacity="10000" stroke-linejoin="miter" stroke-linecap="butt" stroke-miterlimit="4"/><path d=" M 286.118 88.081 L 281.668 88.081 M 909.05 88.081 L 913.5 88.081" fill="rgb(0,0,0)" vector-effect="non-scaling-stroke" stroke-width="1" stroke="rgb(68,68,68)" stroke-opacity="10000" stroke-linejoin="miter" stroke-linecap="butt" stroke-miterlimit="4"/><path d=" M 286.118 108.17 L 281.668 108.17 M 909.05 108.17 L 913.5 108.17" fill="rgb(0,0,0)" vector-effect="non-scaling-stroke" stroke-width="1" stroke="rgb(68,68,68)" stroke-opacity="10000" stroke-linejoin="miter" stroke-linecap="butt" stroke-miterlimit="4"/><path d=" M 286.118 128.259 L 281.668 128.259 M 909.05 128.259 L 913.5 128.259" fill="rgb(0,0,0)" vector-effect="non-scaling-stroke" stroke-width="1" stroke="rgb(68,68,68)" stroke-opacity="10000" stroke-linejoin="miter" stroke-linecap="butt" stroke-miterlimit="4"/><path d=" M 286.118 429.6 L 281.668 429.6 M 909.05 429.6 L 913.5 429.6" fill="rgb(0,0,0)" vector-effect="non-scaling-stroke" stroke-width="1" stroke="rgb(68,68,68)" stroke-opacity="10000" stroke-linejoin="miter" stroke-linecap="butt" stroke-miterlimit="4"/><path d=" M 286.118 409.512 L 281.668 409.512 M 909.05 409.512 L 913.5 409.512" fill="rgb(0,0,0)" vector-effect="non-scaling-stroke" stroke-width="1" stroke="rgb(68,68,68)" stroke-opacity="10000" stroke-linejoin="miter" stroke-linecap="butt" stroke-miterlimit="4"/><path d=" M 286.118 389.422 L 281.668 389.422 M 909.05 389.422 L 913.5 389.422" fill="rgb(0,0,0)" vector-effect="non-scaling-stroke" stroke-width="1" stroke="rgb(68,68,68)" stroke-opacity="10000" stroke-linejoin="miter" stroke-linecap="butt" stroke-miterlimit="4"/><path d=" M 286.118 369.332 L 281.668 369.332 M 909.05 369.332 L 913.5 369.332" fill="rgb(0,0,0)" vector-effect="non-scaling-stroke" stroke-width="1" stroke="rgb(68,68,68)" stroke-opacity="10000" stroke-linejoin="miter" stroke-linecap="butt" stroke-miterlimit="4"/><path d=" M 286.118 268.885 L 281.668 268.885 M 909.05 268.885 L 913.5 268.885" fill="rgb(0,0,0)" vector-effect="non-scaling-stroke" stroke-width="1" stroke="rgb(68,68,68)" stroke-opacity="10000" stroke-linejoin="miter" stroke-linecap="butt" stroke-miterlimit="4"/></g><g><path d=" M 617.207 440.901 L 617.207 447.179 M 617.207 36.601 L 617.207 30.324" fill="rgb(0,0,0)" vector-effect="non-scaling-stroke" stroke-width="1" stroke="rgb(68,68,68)" stroke-opacity="10000" stroke-linejoin="miter" stroke-linecap="butt" stroke-miterlimit="4"/><path d=" M 727.27 440.901 L 727.27 447.179 M 727.27 36.601 L 727.27 30.324" fill="rgb(0,0,0)" vector-effect="non-scaling-stroke" stroke-width="1" stroke="rgb(68,68,68)" stroke-opacity="10000" stroke-linejoin="miter" stroke-linecap="butt" stroke-miterlimit="4"/><g><clipPath id="_clipPath_77GpCqpilMsA8zUMkZ7Zwh07F7wmTLv6"><rect x="609.68" y="449.155" width="16.908" height="20.521" transform="matrix(1,0,0,1,0,0)" fill="rgb(255,255,255)"/></clipPath><g clip-path="url(#_clipPath_77GpCqpilMsA8zUMkZ7Zwh07F7wmTLv6)"><g><g clip-path="url(#_clipPath_4CnP7B0QV1IiXN7rMj1iBPHXpfyNZeuG)"><text transform="matrix(0.89,0,0,1.075,609.68,462.941)" style="font-family:'Georgia';font-weight:400;font-size:12px;font-style:normal;font-variant-ligatures:none;fill:#000000;stroke:none;">0.6</text></g><defs><clipPath id="_clipPath_4CnP7B0QV1IiXN7rMj1iBPHXpfyNZeuG"><rect x="0" y="0" width="19" height="16.342" transform="matrix(0.89,0,0,1.075,609.68,449.153)"/></clipPath></defs></g></g></g><g><clipPath id="_clipPath_exluyU76SfZAAUcK31JhjiSWrDxOarCR"><rect x="719.743" y="449.155" width="16.908" height="20.521" transform="matrix(1,0,0,1,0,0)" fill="rgb(255,255,255)"/></clipPath><g clip-path="url(#_clipPath_exluyU76SfZAAUcK31JhjiSWrDxOarCR)"><g><g clip-path="url(#_clipPath_bArMGnTWBk9AWDP27xmkcP0oUfUXVo5v)"><text transform="matrix(0.89,0,0,1.075,719.743,462.941)" style="font-family:'Georgia';font-weight:400;font-size:12px;font-style:normal;font-variant-ligatures:none;fill:#000000;stroke:none;">0.8</text></g><defs><clipPath id="_clipPath_bArMGnTWBk9AWDP27xmkcP0oUfUXVo5v"><rect x="0" y="0" width="19" height="16.342" transform="matrix(0.89,0,0,1.075,719.743,449.153)"/></clipPath></defs></g></g></g><path d=" M 287.008 440.901 L 287.008 447.179 M 287.008 36.601 L 287.008 30.324" fill="rgb(0,0,0)" vector-effect="non-scaling-stroke" stroke-width="1" stroke="rgb(68,68,68)" stroke-opacity="10000" stroke-linejoin="miter" stroke-linecap="butt" stroke-miterlimit="4"/><path d=" M 397.071 440.901 L 397.071 447.179 M 397.071 36.601 L 397.071 30.324" fill="rgb(0,0,0)" vector-effect="non-scaling-stroke" stroke-width="1" stroke="rgb(68,68,68)" stroke-opacity="10000" stroke-linejoin="miter" stroke-linecap="butt" stroke-miterlimit="4"/><path d=" M 507.134 440.901 L 507.134 447.179 M 507.134 36.601 L 507.134 30.324" fill="rgb(0,0,0)" vector-effect="non-scaling-stroke" stroke-width="1" stroke="rgb(68,68,68)" stroke-opacity="10000" stroke-linejoin="miter" stroke-linecap="butt" stroke-miterlimit="4"/><path d=" M 837.333 440.901 L 837.333 447.179 M 837.333 36.601 L 837.333 30.324" fill="rgb(0,0,0)" vector-effect="non-scaling-stroke" stroke-width="1" stroke="rgb(68,68,68)" stroke-opacity="10000" stroke-linejoin="miter" stroke-linecap="butt" stroke-miterlimit="4"/><g><clipPath id="_clipPath_YxN8bkXxWKHveCmDgYb1qAStWOh8FGGy"><rect x="283.955" y="449.155" width="8.009" height="20.521" transform="matrix(1,0,0,1,0,0)" fill="rgb(255,255,255)"/></clipPath><g clip-path="url(#_clipPath_YxN8bkXxWKHveCmDgYb1qAStWOh8FGGy)"><g><g clip-path="url(#_clipPath_UM3BZRY7LvYnXDBhgYSZu6OxVztzYhNf)"><text transform="matrix(0.89,0,0,1.075,283.955,462.941)" style="font-family:'Georgia';font-weight:400;font-size:12px;font-style:normal;font-variant-ligatures:none;fill:#000000;stroke:none;">0</text></g><defs><clipPath id="_clipPath_UM3BZRY7LvYnXDBhgYSZu6OxVztzYhNf"><rect x="0" y="0" width="9" height="16.342" transform="matrix(0.89,0,0,1.075,283.955,449.153)"/></clipPath></defs></g></g></g><g><clipPath id="_clipPath_cRhjXglRemQ5Y94S7qG7n1nx1rmAp42H"><rect x="389.544" y="449.155" width="16.908" height="20.521" transform="matrix(1,0,0,1,0,0)" fill="rgb(255,255,255)"/></clipPath><g clip-path="url(#_clipPath_cRhjXglRemQ5Y94S7qG7n1nx1rmAp42H)"><g><g clip-path="url(#_clipPath_gEW1F126spDd0zhwNGqMrWZpCTJxCjKZ)"><text transform="matrix(0.89,0,0,1.075,389.544,462.941)" style="font-family:'Georgia';font-weight:400;font-size:12px;font-style:normal;font-variant-ligatures:none;fill:#000000;stroke:none;">0.2</text></g><defs><clipPath id="_clipPath_gEW1F126spDd0zhwNGqMrWZpCTJxCjKZ"><rect x="0" y="0" width="19" height="16.342" transform="matrix(0.89,0,0,1.075,389.544,449.153)"/></clipPath></defs></g></g></g><g><clipPath id="_clipPath_2GnKjlmuePrzIjMxGcY2KP9AvOw91dpc"><rect x="499.608" y="449.155" width="16.908" height="20.521" transform="matrix(1,0,0,1,0,0)" fill="rgb(255,255,255)"/></clipPath><g clip-path="url(#_clipPath_2GnKjlmuePrzIjMxGcY2KP9AvOw91dpc)"><g><g clip-path="url(#_clipPath_DcVx72HfGKEwyH7xrFE8Gzkqeyuv4gn8)"><text transform="matrix(0.89,0,0,1.075,499.608,462.941)" style="font-family:'Georgia';font-weight:400;font-size:12px;font-style:normal;font-variant-ligatures:none;fill:#000000;stroke:none;">0.4</text></g><defs><clipPath id="_clipPath_DcVx72HfGKEwyH7xrFE8Gzkqeyuv4gn8"><rect x="0" y="0" width="19" height="16.342" transform="matrix(0.89,0,0,1.075,499.608,449.153)"/></clipPath></defs></g></g></g><g><clipPath id="_clipPath_LL68WwUoZTFVWZU2zfs72QeCPi1R8R3h"><rect x="834.28" y="449.155" width="8.009" height="20.521" transform="matrix(1,0,0,1,0,0)" fill="rgb(255,255,255)"/></clipPath><g clip-path="url(#_clipPath_LL68WwUoZTFVWZU2zfs72QeCPi1R8R3h)"><g><g clip-path="url(#_clipPath_erg33mKdVuDqGYwnzR7bXXmo3RRbgq75)"><text transform="matrix(0.89,0,0,1.075,834.28,462.941)" style="font-family:'Georgia';font-weight:400;font-size:12px;font-style:normal;font-variant-ligatures:none;fill:#000000;stroke:none;">1</text></g><defs><clipPath id="_clipPath_erg33mKdVuDqGYwnzR7bXXmo3RRbgq75"><rect x="0" y="0" width="9" height="16.342" transform="matrix(0.89,0,0,1.075,834.28,449.153)"/></clipPath></defs></g></g></g></g></g><g><g clip-path="url(#_clipPath_WVIsUsWbSa2pjHIaxpF2BdbvYdgWNyKE)"><text transform="matrix(1.075,0,0,1.256,91.045,70.329)" style="font-family:'Georgia';font-weight:400;font-size:12px;font-style:normal;font-variant-ligatures:none;fill:#000000;stroke:none;">1483_vaccinationstha_adults...</text></g><defs><clipPath id="_clipPath_WVIsUsWbSa2pjHIaxpF2BdbvYdgWNyKE"><rect x="0" y="0" width="172" height="16.342" transform="matrix(1.075,0,0,1.256,91.045,54.223)"/></clipPath></defs><g clip-path="url(#_clipPath_wc7gztJ5D4ywtFOCSQDCJFQXpMkAn0ri)"><text transform="matrix(1.075,0,0,1.256,96.42,50.24)" style="font-family:'Georgia';font-weight:400;font-size:12px;font-style:normal;font-variant-ligatures:none;fill:#000000;stroke:none;">544_administered_doses_cnn</text></g><defs><clipPath id="_clipPath_wc7gztJ5D4ywtFOCSQDCJFQXpMkAn0ri"><rect x="0" y="0" width="167" height="16.342" transform="matrix(1.075,0,0,1.256,96.42,34.134)"/></clipPath></defs><g clip-path="url(#_clipPath_1CRa8Y3C0Pi7K5mV5Nc238WnfoAwowcj)"><text transform="matrix(1.075,0,0,1.256,112.547,90.419)" style="font-family:'Georgia';font-weight:400;font-size:12px;font-style:normal;font-variant-ligatures:none;fill:#000000;stroke:none;">1554_scope_either_receive</text></g><defs><clipPath id="_clipPath_1CRa8Y3C0Pi7K5mV5Nc238WnfoAwowcj"><rect x="0" y="0" width="152" height="16.342" transform="matrix(1.075,0,0,1.256,112.547,74.313)"/></clipPath></defs><g clip-path="url(#_clipPath_ymC8nJQhV97gq3deeEhVlhOK624qdyv4)"><text transform="matrix(1.075,0,0,1.256,86.744,110.509)" style="font-family:'Georgia';font-weight:400;font-size:12px;font-style:normal;font-variant-ligatures:none;fill:#000000;stroke:none;">231_misinformation_trust_po...</text></g><defs><clipPath id="_clipPath_ymC8nJQhV97gq3deeEhVlhOK624qdyv4"><rect x="0" y="0" width="176" height="16.342" transform="matrix(1.075,0,0,1.256,86.744,94.402)"/></clipPath></defs><g clip-path="url(#_clipPath_xIIqArSj9NF64xo4fJp8fgTm7h4eLs4l)"><text transform="matrix(1.075,0,0,1.256,75.993,130.597)" style="font-family:'Georgia';font-weight:400;font-size:12px;font-style:normal;font-variant-ligatures:none;fill:#000000;stroke:none;">775_depre_commercials_rewar...</text></g><defs><clipPath id="_clipPath_xIIqArSj9NF64xo4fJp8fgTm7h4eLs4l"><rect x="0" y="0" width="186" height="16.342" transform="matrix(1.075,0,0,1.256,75.993,114.491)"/></clipPath></defs><g clip-path="url(#_clipPath_oNHyNabvc0Bao3uj2tLBfOwL0z1gPvnX)"><text transform="matrix(1.075,0,0,1.256,79.218,431.939)" style="font-family:'Georgia';font-weight:400;font-size:12px;font-style:normal;font-variant-ligatures:none;fill:#000000;stroke:none;">200_antibodies_antibody_mon...</text></g><defs><clipPath id="_clipPath_oNHyNabvc0Bao3uj2tLBfOwL0z1gPvnX"><rect x="0" y="0" width="183" height="16.342" transform="matrix(1.075,0,0,1.256,79.218,415.832)"/></clipPath></defs><g clip-path="url(#_clipPath_kxaWLKp7XtkqYXoZqyFhwaVU1jqdtrir)"><text transform="matrix(1.075,0,0,1.256,112.547,411.849)" style="font-family:'Georgia';font-weight:400;font-size:12px;font-style:normal;font-variant-ligatures:none;fill:#000000;stroke:none;">50_herd_immunity_natural</text></g><defs><clipPath id="_clipPath_kxaWLKp7XtkqYXoZqyFhwaVU1jqdtrir"><rect x="0" y="0" width="152" height="16.342" transform="matrix(1.075,0,0,1.256,112.547,395.743)"/></clipPath></defs><g clip-path="url(#_clipPath_jryTGsbtStAncoUtmiBqs2L1qQvuiKNH)"><text transform="matrix(1.075,0,0,1.256,140.5,391.76)" style="font-family:'Georgia';font-weight:400;font-size:12px;font-style:normal;font-variant-ligatures:none;fill:#000000;stroke:none;">1221_hiv_97_antibody</text></g><defs><clipPath id="_clipPath_jryTGsbtStAncoUtmiBqs2L1qQvuiKNH"><rect x="0" y="0" width="126" height="16.342" transform="matrix(1.075,0,0,1.256,140.5,375.654)"/></clipPath></defs><g clip-path="url(#_clipPath_RKWSlO2afrdK4qETh9MjHrw3DIZwdLPr)"><text transform="matrix(1.075,0,0,1.256,98.57,371.671)" style="font-family:'Georgia';font-weight:400;font-size:12px;font-style:normal;font-variant-ligatures:none;fill:#000000;stroke:none;">91_molnupiravir_antiviral_c...</text></g><defs><clipPath id="_clipPath_RKWSlO2afrdK4qETh9MjHrw3DIZwdLPr"><rect x="0" y="0" width="165" height="16.342" transform="matrix(1.075,0,0,1.256,98.57,355.564)"/></clipPath></defs><g clip-path="url(#_clipPath_7HlETQkCJo5NOOaSC0UlXgbLc5MWGnLN)"><text transform="matrix(1.075,0,0,1.256,146.951,351.581)" style="font-family:'Georgia';font-weight:400;font-size:12px;font-style:normal;font-variant-ligatures:none;fill:#000000;stroke:none;">436_flu_strains_h3n2</text></g><defs><clipPath id="_clipPath_7HlETQkCJo5NOOaSC0UlXgbLc5MWGnLN"><rect x="0" y="0" width="120" height="16.342" transform="matrix(1.075,0,0,1.256,146.951,335.474)"/></clipPath></defs><g clip-path="url(#_clipPath_o9Kovd9Bx9zDLz3AsyyrC70BENX7xsGu)"><text transform="matrix(1.075,0,0,1.256,145.876,331.814)" style="font-family:'Georgia';font-weight:400;font-size:12px;font-style:normal;font-variant-ligatures:none;fill:#000000;stroke:none;">33_flu_influenza_cold</text></g><defs><clipPath id="_clipPath_o9Kovd9Bx9zDLz3AsyyrC70BENX7xsGu"><rect x="0" y="0" width="121" height="16.342" transform="matrix(1.075,0,0,1.256,145.876,315.707)"/></clipPath></defs><g clip-path="url(#_clipPath_zeKDUqg6PF7B6Cn5WFNTWDmh6gQsgo6V)"><text transform="matrix(1.075,0,0,1.256,165.228,311.402)" style="font-family:'Georgia';font-weight:400;font-size:12px;font-style:normal;font-variant-ligatures:none;fill:#000000;stroke:none;">89_shot_flu_never</text></g><defs><clipPath id="_clipPath_zeKDUqg6PF7B6Cn5WFNTWDmh6gQsgo6V"><rect x="0" y="0" width="103" height="16.342" transform="matrix(1.075,0,0,1.256,165.228,295.296)"/></clipPath></defs><g clip-path="url(#_clipPath_OPAOW3soHvXjMAwOq49whKeJnmMYVFSd)"><text transform="matrix(1.075,0,0,1.256,88.894,291.313)" style="font-family:'Georgia';font-weight:400;font-size:12px;font-style:normal;font-variant-ligatures:none;fill:#000000;stroke:none;">1463_sick1_sneezing_coughing</text></g><defs><clipPath id="_clipPath_OPAOW3soHvXjMAwOq49whKeJnmMYVFSd"><rect x="0" y="0" width="174" height="16.342" transform="matrix(1.075,0,0,1.256,88.894,275.206)"/></clipPath></defs><g clip-path="url(#_clipPath_L5w68pmdjUrQDLCBaPoz3o5ZWpscL7Ol)"><text transform="matrix(1.075,0,0,1.256,92.12,271.224)" style="font-family:'Georgia';font-weight:400;font-size:12px;font-style:normal;font-variant-ligatures:none;fill:#000000;stroke:none;">1310_reinfection_suggesting...</text></g><defs><clipPath id="_clipPath_L5w68pmdjUrQDLCBaPoz3o5ZWpscL7Ol"><rect x="0" y="0" width="171" height="16.342" transform="matrix(1.075,0,0,1.256,92.12,255.117)"/></clipPath></defs><g clip-path="url(#_clipPath_A63bWbY9cd3RtdjJpPQP3sK0zzaYAKVf)"><text transform="matrix(1.075,0,0,1.256,86.744,251.134)" style="font-family:'Georgia';font-weight:400;font-size:12px;font-style:normal;font-variant-ligatures:none;fill:#000000;stroke:none;">173_possiblebut_deferred_co...</text></g><defs><clipPath id="_clipPath_A63bWbY9cd3RtdjJpPQP3sK0zzaYAKVf"><rect x="0" y="0" width="176" height="16.342" transform="matrix(1.075,0,0,1.256,86.744,235.028)"/></clipPath></defs><g clip-path="url(#_clipPath_ZY2ojEOGUMnG2sRCE86dw2eCx4LDQrFo)"><text transform="matrix(1.075,0,0,1.256,95.345,231.044)" style="font-family:'Georgia';font-weight:400;font-size:12px;font-style:normal;font-variant-ligatures:none;fill:#000000;stroke:none;">549_vaccineto_quicklyi_vacc...</text></g><defs><clipPath id="_clipPath_ZY2ojEOGUMnG2sRCE86dw2eCx4LDQrFo"><rect x="0" y="0" width="168" height="16.342" transform="matrix(1.075,0,0,1.256,95.345,214.938)"/></clipPath></defs><g clip-path="url(#_clipPath_LgolxOn2qXjp7ZtFehmqFXrAXaMWVlzU)"><text transform="matrix(1.075,0,0,1.256,89.969,210.956)" style="font-family:'Georgia';font-weight:400;font-size:12px;font-style:normal;font-variant-ligatures:none;fill:#000000;stroke:none;">12_desperately_vaccines_the...</text></g><defs><clipPath id="_clipPath_LgolxOn2qXjp7ZtFehmqFXrAXaMWVlzU"><rect x="0" y="0" width="173" height="16.342" transform="matrix(1.075,0,0,1.256,89.969,194.849)"/></clipPath></defs><g clip-path="url(#_clipPath_yXjZeaazo1ukngOFdc0KQQElSiHh7O8H)"><text transform="matrix(1.075,0,0,1.256,95.345,190.866)" style="font-family:'Georgia';font-weight:400;font-size:12px;font-style:normal;font-variant-ligatures:none;fill:#000000;stroke:none;">531_vaccinat_protecting_sta...</text></g><defs><clipPath id="_clipPath_yXjZeaazo1ukngOFdc0KQQElSiHh7O8H"><rect x="0" y="0" width="168" height="16.342" transform="matrix(1.075,0,0,1.256,95.345,174.759)"/></clipPath></defs><g clip-path="url(#_clipPath_vv1nvQAhTrL77d5pFprARZBQPM5J5ZNe)"><text transform="matrix(1.075,0,0,1.256,79.218,150.687)" style="font-family:'Georgia';font-weight:400;font-size:12px;font-style:normal;font-variant-ligatures:none;fill:#000000;stroke:none;">901_lungs_preventing_approved</text></g><defs><clipPath id="_clipPath_vv1nvQAhTrL77d5pFprARZBQPM5J5ZNe"><rect x="0" y="0" width="183" height="16.342" transform="matrix(1.075,0,0,1.256,79.218,134.581)"/></clipPath></defs><g clip-path="url(#_clipPath_xLzMKWBiaLTx0Oru59X7TbaYy3InKG58)"><text transform="matrix(1.075,0,0,1.256,91.045,170.776)" style="font-family:'Georgia';font-weight:400;font-size:12px;font-style:normal;font-variant-ligatures:none;fill:#000000;stroke:none;">248_slim_iscovid19_contrace...</text></g><defs><clipPath id="_clipPath_xLzMKWBiaLTx0Oru59X7TbaYy3InKG58"><rect x="0" y="0" width="172" height="16.342" transform="matrix(1.075,0,0,1.256,91.045,154.67)"/></clipPath></defs></g></g></g></g></g></g></svg>