<?xml version="1.0" encoding="UTF-8" standalone="no"?>
<svg
   xmlns:dc="http://purl.org/dc/elements/1.1/"
   xmlns:cc="http://creativecommons.org/ns#"
   xmlns:rdf="http://www.w3.org/1999/02/22-rdf-syntax-ns#"
   xmlns:svg="http://www.w3.org/2000/svg"
   xmlns="http://www.w3.org/2000/svg"
   viewBox="0 0 512 708.15997"
   height="708.15997"
   width="512"
   xml:space="preserve"
   id="svg2"
   version="1.1"><metadata
     id="metadata8"><rdf:RDF><cc:Work
         rdf:about=""><dc:format>image/svg+xml</dc:format><dc:type
           rdf:resource="http://purl.org/dc/dcmitype/StillImage" /></cc:Work></rdf:RDF></metadata><defs
     id="defs6"><clipPath
       id="clipPath18"
       clipPathUnits="userSpaceOnUse"><path
         style="clip-rule:evenodd"
         id="path16"
         d="M 0,0 H 1600 V 2212.3828 H 0 Z" /></clipPath><clipPath
       id="clipPath30"
       clipPathUnits="userSpaceOnUse"><path
         style="clip-rule:evenodd"
         id="path28"
         d="M 0,0 H 1600 V 2212.3828 H 0 Z" /></clipPath></defs><g
     transform="matrix(0.31999998,0,0,0.31999998,0,1.7704e-5)"
     id="g10"><g
       id="g12"><g
         clip-path="url(#clipPath18)"
         id="g14"><g
           transform="scale(3.0018761)"
           id="g20"><path
             id="path22"
             style="fill:#ffffff;fill-opacity:1;fill-rule:nonzero;stroke:none"
             d="M 0,0 H 533 V 737 H 0 Z" /></g></g></g><g
       id="g24"><g
         clip-path="url(#clipPath30)"
         id="g26"><g
           transform="matrix(3.0018761,0,0,3.0018761,1.5009381,1.5009381)"
           id="g32"><path
             id="path34"
             style="fill:#f5f5f5;fill-opacity:1;fill-rule:nonzero;stroke:none"
             d="M 1,395 H 531 V 735 H 1 Z" /><path
             id="path36"
             style="fill:#9ac7bf;fill-opacity:1;fill-rule:nonzero;stroke:none"
             d="m 21,252.17 h 106.84 v 55.72001 C 110.03333,296.09 92.226669,296.09 74.419998,307.89001 56.613331,319.69 38.806667,319.69 21,307.89001 v -45.88 z" /><path
             id="path38"
             style="fill:none;stroke:#6c8ebf;stroke-width:1;stroke-linecap:butt;stroke-linejoin:miter;stroke-miterlimit:10;stroke-dasharray:none;stroke-opacity:1"
             d="m 21,252.17 h 106.84 v 55.72001 C 110.03333,296.09 92.226669,296.09 74.419998,307.89001 56.613331,319.69 38.806667,319.69 21,307.89001 v -45.88 z" /></g><g
           transform="scale(3.0018761)"
           id="g40"><text
             id="text44"
             style="font-variant:normal;font-weight:bold;font-size:12px;font-family:Georgia;-inkscape-font-specification:Georgia-Bold;writing-mode:lr-tb;fill:#000000;fill-opacity:1;fill-rule:nonzero;stroke:none"
             transform="translate(26.8125,279)"><tspan
               id="tspan42"
               y="0"
               x="0 8.2089844 18.568359 22.810547 27.580078 32.349609 39.210938 45.451172 48.498047 58.505859 65.654297 70.423828 77.572266 83.724609 90.585938">Twitter Dataset</tspan></text>
</g><g
           transform="matrix(3.0018761,0,0,3.0018761,1.5009381,1.5009381)"
           id="g46"><path
             id="path48"
             style="fill:#f5f5f5;fill-opacity:1;fill-rule:nonzero;stroke:none"
             d="M 21,134.75999 C 21,126.48 41.150002,119.76 66,119.76 c 11.93,0 23.379997,1.58 31.82,4.39 8.44,2.82 13.18,6.63 13.18,10.60999 v 50 c 0,8.28 -20.150002,15 -45,15 -24.849998,0 -45,-6.72 -45,-15 z" /><path
             id="path50"
             style="fill:none;stroke:#666666;stroke-width:1;stroke-linecap:butt;stroke-linejoin:miter;stroke-miterlimit:10;stroke-dasharray:none;stroke-opacity:1"
             d="M 21,134.75999 C 21,126.48 41.150002,119.76 66,119.76 c 11.93,0 23.379997,1.58 31.82,4.39 8.44,2.82 13.18,6.63 13.18,10.60999 v 50 c 0,8.28 -20.150002,15 -45,15 -24.849998,0 -45,-6.72 -45,-15 z" /><path
             id="path52"
             style="fill:none;stroke:#666666;stroke-width:1;stroke-linecap:butt;stroke-linejoin:miter;stroke-miterlimit:10;stroke-dasharray:none;stroke-opacity:1"
             d="m 111,134.75999 c 0,8.28 -20.150002,15 -45,15 -24.849998,0 -45,-6.72 -45,-15" /></g><g
           transform="scale(3.0018761)"
           id="g54"><text
             id="text58"
             style="font-variant:normal;font-weight:normal;font-size:12px;font-family:Georgia;-inkscape-font-specification:Georgia;writing-mode:lr-tb;fill:#333333;fill-opacity:1;fill-rule:nonzero;stroke:none"
             transform="translate(28.890625,169)"><tspan
               id="tspan56"
               y="0"
               x="0 8.7011719 13.617188 20.085938 26.988281 34.078125 40.96875 43.863281 51.287109 56.203125 63.105469 67.248047">Ground Truth</tspan></text>
<text
             id="text62"
             style="font-variant:normal;font-weight:normal;font-size:12px;font-family:Georgia;-inkscape-font-specification:Georgia;writing-mode:lr-tb;fill:#333333;fill-opacity:1;fill-rule:nonzero;stroke:none"
             transform="translate(46.875,184)"><tspan
               id="tspan60"
               y="0"
               x="0 6.890625 12.9375 17.080078 23.126953 28.3125 34.113281">dataset</tspan></text>
</g><g
           transform="matrix(3.0018761,0,0,3.0018761,1.5009381,1.5009381)"
           id="g64"><path
             id="path66"
             style="fill:#f5f5f5;fill-opacity:1;fill-rule:nonzero;stroke:none"
             d="m 181,135.17 h 106.84 v 49.17 H 181 Z" /><path
             id="path68"
             style="fill:none;stroke:#666666;stroke-width:1;stroke-linecap:butt;stroke-linejoin:miter;stroke-miterlimit:10;stroke-dasharray:none;stroke-opacity:1"
             d="m 181,135.17 h 106.84 v 49.17 H 181 Z" /><path
             id="path70"
             style="fill:none;stroke:#666666;stroke-width:1;stroke-linecap:butt;stroke-linejoin:miter;stroke-miterlimit:10;stroke-dasharray:none;stroke-opacity:1"
             d="m 192,135.17 v 49.17 m 84.84,-49.17 v 49.17" /></g><g
           transform="scale(3.0018761)"
           id="g72"><text
             id="text76"
             style="font-variant:normal;font-weight:normal;font-size:12px;font-family:Georgia;-inkscape-font-specification:Georgia;writing-mode:lr-tb;fill:#333333;fill-opacity:1;fill-rule:nonzero;stroke:none"
             transform="translate(210.39063,157)"><tspan
               id="tspan74"
               y="0"
               x="0 7.7050781 11.138672 17.185547 22.371094 27.556641 31.072266 34.974609 38.490234 44.291016">Classifier</tspan></text>
<text
             id="text80"
             style="font-variant:normal;font-weight:normal;font-size:12px;font-family:Georgia;-inkscape-font-specification:Georgia;writing-mode:lr-tb;fill:#333333;fill-opacity:1;fill-rule:nonzero;stroke:none"
             transform="translate(218.42188,172)"><tspan
               id="tspan78"
               y="0"
               x="0 10.570312 17.039062 23.929688 29.730469">model</tspan></text>
</g><g
           transform="matrix(3.0018761,0,0,3.0018761,1.5009381,1.5009381)"
           id="g82"><path
             id="path84"
             style="fill:none;stroke:#000000;stroke-width:1;stroke-linecap:butt;stroke-linejoin:miter;stroke-miterlimit:10;stroke-dasharray:none;stroke-opacity:1"
             d="m 111,159.75999 h 63.63" /><path
             id="path86"
             style="fill:#000000;fill-opacity:1;fill-rule:nonzero;stroke:none"
             d="m 179.88,159.75999 -7,3.5 1.75,-3.5 -1.75,-3.5 z" /><path
             id="path88"
             style="fill:none;stroke:#000000;stroke-width:1;stroke-linecap:butt;stroke-linejoin:miter;stroke-miterlimit:10;stroke-dasharray:none;stroke-opacity:1"
             d="m 179.88,159.75999 -7,3.5 1.75,-3.5 -1.75,-3.5 z" /><path
             id="path90"
             style="fill:#ffffff;fill-opacity:1;fill-rule:nonzero;stroke:none"
             d="m 179.42,259.95001 h 109.99998 v 50 H 179.42 Z" /><path
             id="path92"
             style="fill:none;stroke:#000000;stroke-width:1;stroke-linecap:butt;stroke-linejoin:miter;stroke-miterlimit:10;stroke-dasharray:none;stroke-opacity:1"
             d="m 179.42,259.95001 h 109.99998 v 50 H 179.42 Z" /></g><g
           transform="scale(3.0018761)"
           id="g94"><text
             id="text98"
             style="font-variant:normal;font-weight:normal;font-size:12px;font-family:Georgia;-inkscape-font-specification:Georgia;writing-mode:lr-tb;fill:#000000;fill-opacity:1;fill-rule:nonzero;stroke:none"
             transform="translate(185.23438,289)"><tspan
               id="tspan96"
               y="0"
               x="0 7.7050781 11.138672 17.185547 22.371094 27.556641 31.072266 34.974609 40.880859 43.775391 47.917969 54.902344 60.703125 63.597656 67.740234 76.587891 82.388672 88.189453 92.332031">Classify the tweets</tspan></text>
</g><g
           transform="matrix(3.0018761,0,0,3.0018761,1.5009381,1.5009381)"
           id="g100"><path
             id="path102"
             style="fill:none;stroke:#000000;stroke-width:1;stroke-linecap:butt;stroke-linejoin:miter;stroke-miterlimit:10;stroke-dasharray:none;stroke-opacity:1"
             d="m 127.84,284.95001 h 45.21" /><path
             id="path104"
             style="fill:#000000;fill-opacity:1;fill-rule:nonzero;stroke:none"
             d="m 178.3,284.95001 -7,3.5 1.75,-3.5 -1.75,-3.5 z" /><path
             id="path106"
             style="fill:none;stroke:#000000;stroke-width:1;stroke-linecap:butt;stroke-linejoin:miter;stroke-miterlimit:10;stroke-dasharray:none;stroke-opacity:1"
             d="m 178.3,284.95001 -7,3.5 1.75,-3.5 -1.75,-3.5 z" /><path
             id="path108"
             style="fill:none;stroke:#000000;stroke-width:1;stroke-linecap:butt;stroke-linejoin:miter;stroke-miterlimit:10;stroke-dasharray:none;stroke-opacity:1"
             d="m 229.42,184.84 h 10 v 55.61 h 10.5 l -15.5,19.00001 -15.5,-19.00001 h 10.5 z" /><path
             id="path110"
             style="fill:#ffffff;fill-opacity:1;fill-rule:nonzero;stroke:none"
             d="m 351,539.78003 h 110 v 50 H 351 Z" /><path
             id="path112"
             style="fill:none;stroke:#000000;stroke-width:1;stroke-linecap:butt;stroke-linejoin:miter;stroke-miterlimit:10;stroke-dasharray:none;stroke-opacity:1"
             d="m 351,539.78003 h 110 v 50 H 351 Z" /></g><g
           transform="scale(3.0018761)"
           id="g114"><text
             id="text118"
             style="font-variant:normal;font-weight:normal;font-size:12px;font-family:Georgia;-inkscape-font-specification:Georgia;writing-mode:lr-tb;fill:#000000;fill-opacity:1;fill-rule:nonzero;stroke:none"
             transform="translate(354.03125,562)"><tspan
               id="tspan116"
               y="0"
               x="0 4.6757812 11.566406 17.367188 24.457031 28.599609 32.115234 36.017578 41.923828 44.818359 48.960938 55.945312 61.746094 64.640625 70.599609 76.646484 82.095703 87.544922 91.060547 98.150391">Identify the vaccine</tspan></text>
<text
             id="text122"
             style="font-variant:normal;font-weight:normal;font-size:12px;font-family:Georgia;-inkscape-font-specification:Georgia;writing-mode:lr-tb;fill:#000000;fill-opacity:1;fill-rule:nonzero;stroke:none"
             transform="translate(370.23438,577)"><tspan
               id="tspan120"
               y="0"
               x="0 4.9160156 10.716797 14.150391 20.197266 24.339844 30.140625 37.03125 39.925781 44.068359 50.537109 57.392578 60.908203 66.357422">related topics</tspan></text>
</g><g
           transform="matrix(3.0018761,0,0,3.0018761,1.5009381,1.5009381)"
           id="g124"><path
             id="path126"
             style="fill:#ffe6cc;fill-opacity:1;fill-rule:nonzero;stroke:none"
             d="m 12.58,532 h 106.84 v 55.71997 c -17.80667,-11.79999 -35.613329,-11.79999 -53.42,0 -17.806667,11.79999 -35.613333,11.79999 -53.42,0 v -45.88995 z" /><path
             id="path128"
             style="fill:none;stroke:#d79b00;stroke-width:1;stroke-linecap:butt;stroke-linejoin:miter;stroke-miterlimit:10;stroke-dasharray:none;stroke-opacity:1"
             d="m 12.58,532 h 106.84 v 55.71997 c -17.80667,-11.79999 -35.613329,-11.79999 -53.42,0 -17.806667,11.79999 -35.613333,11.79999 -53.42,0 v -45.88995 z" /></g><g
           transform="scale(3.0018761)"
           id="g130"><text
             id="text134"
             style="font-variant:normal;font-weight:bold;font-size:12px;font-family:Georgia;-inkscape-font-specification:Georgia-Bold;writing-mode:lr-tb;fill:#000000;fill-opacity:1;fill-rule:nonzero;stroke:none"
             transform="translate(20.703125,545)"><tspan
               id="tspan132"
               y="0"
               x="0 9.1464844 16.294922 22.669922 29.044922 33.287109 41.566406 48.427734 51.474609 56.244141 63.873047 71.765625 76.007812 82.382812 88.535156">Vaccine topics </tspan></text>
<text
             id="text138"
             style="font-variant:normal;font-weight:bold;font-size:12px;font-family:Georgia;-inkscape-font-specification:Georgia-Bold;writing-mode:lr-tb;fill:#000000;fill-opacity:1;fill-rule:nonzero;stroke:none"
             transform="translate(33.484375,559)"><tspan
               id="tspan136"
               y="0"
               x="0 7.1484375 15.427734 23.384766 26.431641 32.583984 37.353516 44.501953 52.78125 59.15625">and stance</tspan></text>
<text
             id="text142"
             style="font-variant:normal;font-weight:bold;font-size:12px;font-family:Georgia;-inkscape-font-specification:Georgia-Bold;writing-mode:lr-tb;fill:#000000;fill-opacity:1;fill-rule:nonzero;stroke:none"
             transform="translate(43.078125,574)"><tspan
               id="tspan140"
               y="0"
               x="0 10.007812 17.15625 21.925781 29.074219 35.226562 42.087891">Dataset</tspan></text>
</g><g
           transform="matrix(3.0018761,0,0,3.0018761,1.5009381,1.5009381)"
           id="g144"><path
             id="path146"
             style="fill:none;stroke:#000000;stroke-width:1;stroke-linecap:butt;stroke-linejoin:miter;stroke-miterlimit:10;stroke-dasharray:none;stroke-opacity:1"
             d="m 66,532 v -20 h 45 v -10.63" /><path
             id="path148"
             style="fill:#000000;fill-opacity:1;fill-rule:nonzero;stroke:none"
             d="m 111,496.12 3.5,7 -3.5,-1.75 -3.5,1.75 z" /><path
             id="path150"
             style="fill:none;stroke:#000000;stroke-width:1;stroke-linecap:butt;stroke-linejoin:miter;stroke-miterlimit:10;stroke-dasharray:none;stroke-opacity:1"
             d="m 111,496.12 3.5,7 -3.5,-1.75 -3.5,1.75 z" /><path
             id="path152"
             style="fill:none;stroke:#000000;stroke-width:1;stroke-linecap:butt;stroke-linejoin:miter;stroke-miterlimit:10;stroke-dasharray:none;stroke-opacity:1"
             d="m 66,597.56 v 20.03998 h 45 v 11.45001" /><path
             id="path154"
             style="fill:#000000;fill-opacity:1;fill-rule:nonzero;stroke:none"
             d="m 111,634.29999 -3.5,-7 3.5,1.75 3.5,-1.75 z" /><path
             id="path156"
             style="fill:none;stroke:#000000;stroke-width:1;stroke-linecap:butt;stroke-linejoin:miter;stroke-miterlimit:10;stroke-dasharray:none;stroke-opacity:1"
             d="m 111,634.29999 -3.5,-7 3.5,1.75 3.5,-1.75 z" /><path
             id="path158"
             style="fill:none;stroke:#000000;stroke-width:1;stroke-linecap:butt;stroke-linejoin:miter;stroke-miterlimit:10;stroke-dasharray:none;stroke-opacity:1"
             d="m 411,650.33002 h -10 v -41.04999 h -10.5 l 15.5,-19 15.5,19 H 411 Z" /><path
             id="path160"
             style="fill:#f5f5f5;fill-opacity:1;fill-rule:nonzero;stroke:none"
             d="M 351,650.83002 H 461 V 700 H 351 Z" /><path
             id="path162"
             style="fill:none;stroke:#666666;stroke-width:1;stroke-linecap:butt;stroke-linejoin:miter;stroke-miterlimit:10;stroke-dasharray:none;stroke-opacity:1"
             d="M 351,650.83002 H 461 V 700 H 351 Z" /><path
             id="path164"
             style="fill:none;stroke:#666666;stroke-width:1;stroke-linecap:butt;stroke-linejoin:miter;stroke-miterlimit:10;stroke-dasharray:none;stroke-opacity:1"
             d="M 362,650.83002 V 700 m 88,-49.16998 V 700" /></g><g
           transform="scale(3.0018761)"
           id="g166"><text
             id="text170"
             style="font-variant:normal;font-weight:normal;font-size:12px;font-family:Georgia;-inkscape-font-specification:Georgia;writing-mode:lr-tb;fill:#333333;fill-opacity:1;fill-rule:nonzero;stroke:none"
             transform="translate(364.46875,679)"><tspan
               id="tspan168"
               y="0"
               x="0 7.4238281 13.892578 20.748047 24.263672 29.712891 32.607422 43.734375 50.203125 57.09375 62.894531 66.328125 69.84375 76.933594">Topic Modeling</tspan></text>
</g><g
           transform="matrix(3.0018761,0,0,3.0018761,1.5009381,1.5009381)"
           id="g172"><path
             id="path174"
             style="fill:#dae8fc;fill-opacity:1;fill-rule:nonzero;stroke:none"
             d="m 171,455 c 0,1.31003 -0.0963,2.61694 -0.28889,3.92068 -0.19263,1.30372 -0.48063,2.598 -0.864,3.88288 -0.38336,1.28488 -0.86026,2.55414 -1.4307,3.8078 -0.57043,1.25363 -1.23166,2.48559 -1.98366,3.69589 -0.75198,1.21033 -1.59115,2.39319 -2.5175,3.54855 -0.92631,1.15537 -1.93535,2.27768 -3.0271,3.36692 -1.09173,1.08932 -2.26092,2.14029 -3.50755,3.15295 -1.24663,1.0127 -2.5647,1.98221 -3.95421,2.90854 -1.38953,0.92636 -2.84379,1.80505 -4.36281,2.63614 -1.51902,0.83108 -3.09549,1.6105 -4.72938,2.33832 -1.6339,0.72787 -3.31735,1.40057 -5.0504,2.01809 -1.73305,0.61759 -3.50731,1.17701 -5.32282,1.67832 -1.81547,0.50134 -3.66345,0.94217 -5.54391,1.32245 -1.88046,0.38031 -3.78434,0.69824 -5.71166,0.95382 -1.92731,0.25562 -3.86877,0.44764 -5.82438,0.57602 C 114.92542,494.93579 112.96508,495 111,495 c -1.96507,0 -3.92541,-0.0642 -5.88103,-0.19263 -1.95561,-0.12838 -3.89708,-0.3204 -5.824399,-0.57602 -1.927315,-0.25558 -3.831207,-0.57351 -5.71167,-0.95379 -1.880455,-0.38031 -3.728432,-0.82114 -5.543922,-1.32248 -1.815484,-0.50131 -3.589753,-1.06073 -5.322792,-1.67829 -1.73304,-0.61755 -3.416504,-1.29025 -5.050408,-2.01812 -1.633896,-0.72782 -3.210358,-1.50727 -4.729385,-2.33835 -1.51902,-0.83106 -2.973282,-1.70975 -4.362801,-2.63611 -1.389511,-0.92633 -2.70758,-1.89584 -3.954216,-2.90851 -1.246631,-1.01266 -2.415817,-2.06366 -3.507557,-3.15298 -1.091732,-1.08924 -2.100765,-2.21155 -3.027099,-3.36692 -0.926327,-1.15536 -1.765496,-2.33822 -2.517498,-3.54855 -0.751999,-1.2103 -1.413216,-2.44226 -1.983647,-3.69589 -0.570431,-1.25366 -1.047333,-2.52292 -1.430698,-3.8078 -0.383362,-1.28488 -0.671349,-2.57916 -0.86396,-3.88288 C 51.09631,457.61694 51.000004,456.31003 51,455 c 4e-6,-1.31006 0.09631,-2.61697 0.288921,-3.92072 0.192608,-1.30371 0.480595,-2.59802 0.863961,-3.88293 0.383369,-1.28485 0.860267,-2.55411 1.430698,-3.80777 0.570431,-1.25363 1.231644,-2.4856 1.983646,-3.69595 0.752003,-1.2103 1.591172,-2.39316 2.517502,-3.54853 0.926327,-1.15536 1.93536,-2.27771 3.027096,-3.36697 1.09174,-1.08923 2.260922,-2.1402 3.507553,-3.15289 1.246636,-1.01264 2.564705,-1.98215 3.954216,-2.90851 1.389519,-0.92633 2.843788,-1.80505 4.362808,-2.63614 1.51902,-0.83109 3.095482,-1.61053 4.729378,-2.33838 1.633904,-0.72781 3.317368,-1.40048 5.050408,-2.01803 1.733039,-0.61756 3.507308,-1.17701 5.322792,-1.67838 1.81549,-0.50131 3.663467,-0.94211 5.54393,-1.32239 1.880455,-0.38028 3.784347,-0.69824 5.711662,-0.95382 1.927319,-0.25556 3.868789,-0.44755 5.824399,-0.57596 1.95562,-0.12839 3.91596,-0.1926 5.88103,-0.19263 1.96508,3e-5 3.92542,0.0642 5.88103,0.19263 1.95561,0.12838 3.89707,0.32037 5.82438,0.57592 1.92732,0.25559 3.8312,0.57355 5.71166,0.95383 1.88046,0.38028 3.72844,0.82111 5.54391,1.32242 1.81551,0.50137 3.58977,1.06082 5.3228,1.67834 1.73305,0.61756 3.41652,1.29023 5.05042,2.01804 1.63389,0.72784 3.21036,1.50732 4.72938,2.33841 1.51902,0.83109 2.97328,1.70981 4.36281,2.63614 1.38951,0.92636 2.70758,1.89587 3.95421,2.90851 1.24663,1.01269 2.41582,2.06366 3.50755,3.15292 1.09175,1.08926 2.10079,2.21158 3.02712,3.36694 0.92634,1.15537 1.7655,2.33823 2.51748,3.54853 0.752,1.21035 1.41323,2.44232 1.98366,3.69595 0.57044,1.25366 1.04734,2.52292 1.4307,3.80777 0.38337,1.28491 0.67137,2.57922 0.864,3.88297 C 170.9037,452.38306 171,453.68994 171,455 Z" /><path
             id="path176"
             style="fill:none;stroke:#6c8ebf;stroke-width:1;stroke-linecap:butt;stroke-linejoin:miter;stroke-miterlimit:10;stroke-dasharray:none;stroke-opacity:1"
             d="m 171,455 c 0,1.31003 -0.0963,2.61694 -0.28889,3.92068 -0.19263,1.30372 -0.48063,2.598 -0.864,3.88288 -0.38336,1.28488 -0.86026,2.55414 -1.4307,3.8078 -0.57043,1.25363 -1.23166,2.48559 -1.98366,3.69589 -0.75198,1.21033 -1.59115,2.39319 -2.5175,3.54855 -0.92631,1.15537 -1.93535,2.27768 -3.0271,3.36692 -1.09173,1.08932 -2.26092,2.14029 -3.50755,3.15295 -1.24663,1.0127 -2.5647,1.98221 -3.95421,2.90854 -1.38953,0.92636 -2.84379,1.80505 -4.36281,2.63614 -1.51902,0.83108 -3.09549,1.6105 -4.72938,2.33832 -1.6339,0.72787 -3.31735,1.40057 -5.0504,2.01809 -1.73305,0.61759 -3.50731,1.17701 -5.32282,1.67832 -1.81547,0.50134 -3.66345,0.94217 -5.54391,1.32245 -1.88046,0.38031 -3.78434,0.69824 -5.71166,0.95382 -1.92731,0.25562 -3.86877,0.44764 -5.82438,0.57602 C 114.92542,494.93579 112.96508,495 111,495 c -1.96507,0 -3.92541,-0.0642 -5.88103,-0.19263 -1.95561,-0.12838 -3.89708,-0.3204 -5.824399,-0.57602 -1.927315,-0.25558 -3.831207,-0.57351 -5.71167,-0.95379 -1.880455,-0.38031 -3.728432,-0.82114 -5.543922,-1.32248 -1.815484,-0.50131 -3.589753,-1.06073 -5.322792,-1.67829 -1.73304,-0.61755 -3.416504,-1.29025 -5.050408,-2.01812 -1.633896,-0.72782 -3.210358,-1.50727 -4.729385,-2.33835 -1.51902,-0.83106 -2.973282,-1.70975 -4.362801,-2.63611 -1.389511,-0.92633 -2.70758,-1.89584 -3.954216,-2.90851 -1.246631,-1.01266 -2.415817,-2.06366 -3.507557,-3.15298 -1.091732,-1.08924 -2.100765,-2.21155 -3.027099,-3.36692 -0.926327,-1.15536 -1.765496,-2.33822 -2.517498,-3.54855 -0.751999,-1.2103 -1.413216,-2.44226 -1.983647,-3.69589 -0.570431,-1.25366 -1.047333,-2.52292 -1.430698,-3.8078 -0.383362,-1.28488 -0.671349,-2.57916 -0.86396,-3.88288 C 51.09631,457.61694 51.000004,456.31003 51,455 c 4e-6,-1.31006 0.09631,-2.61697 0.288921,-3.92072 0.192608,-1.30371 0.480595,-2.59802 0.863961,-3.88293 0.383369,-1.28485 0.860267,-2.55411 1.430698,-3.80777 0.570431,-1.25363 1.231644,-2.4856 1.983646,-3.69595 0.752003,-1.2103 1.591172,-2.39316 2.517502,-3.54853 0.926327,-1.15536 1.93536,-2.27771 3.027096,-3.36697 1.09174,-1.08923 2.260922,-2.1402 3.507553,-3.15289 1.246636,-1.01264 2.564705,-1.98215 3.954216,-2.90851 1.389519,-0.92633 2.843788,-1.80505 4.362808,-2.63614 1.51902,-0.83109 3.095482,-1.61053 4.729378,-2.33838 1.633904,-0.72781 3.317368,-1.40048 5.050408,-2.01803 1.733039,-0.61756 3.507308,-1.17701 5.322792,-1.67838 1.81549,-0.50131 3.663467,-0.94211 5.54393,-1.32239 1.880455,-0.38028 3.784347,-0.69824 5.711662,-0.95382 1.927319,-0.25556 3.868789,-0.44755 5.824399,-0.57596 1.95562,-0.12839 3.91596,-0.1926 5.88103,-0.19263 1.96508,3e-5 3.92542,0.0642 5.88103,0.19263 1.95561,0.12838 3.89707,0.32037 5.82438,0.57592 1.92732,0.25559 3.8312,0.57355 5.71166,0.95383 1.88046,0.38028 3.72844,0.82111 5.54391,1.32242 1.81551,0.50137 3.58977,1.06082 5.3228,1.67834 1.73305,0.61756 3.41652,1.29023 5.05042,2.01804 1.63389,0.72784 3.21036,1.50732 4.72938,2.33841 1.51902,0.83109 2.97328,1.70981 4.36281,2.63614 1.38951,0.92636 2.70758,1.89587 3.95421,2.90851 1.24663,1.01269 2.41582,2.06366 3.50755,3.15292 1.09175,1.08926 2.10079,2.21158 3.02712,3.36694 0.92634,1.15537 1.7655,2.33823 2.51748,3.54853 0.752,1.21035 1.41323,2.44232 1.98366,3.69595 0.57044,1.25366 1.04734,2.52292 1.4307,3.80777 0.38337,1.28491 0.67137,2.57922 0.864,3.88297 C 170.9037,452.38306 171,453.68994 171,455 Z" /></g><g
           transform="scale(3.0018761)"
           id="g178"><text
             id="text182"
             style="font-variant:normal;font-weight:normal;font-size:12px;font-family:Georgia;-inkscape-font-specification:Georgia;writing-mode:lr-tb;fill:#000000;fill-opacity:1;fill-rule:nonzero;stroke:none"
             transform="translate(78.8125,438)"><tspan
               id="tspan180"
               y="0"
               x="0 8.0507812 15.140625 21.1875 24.621094 30.527344 35.853516 41.654297 44.548828 48.691406 55.675781 61.476562">Analyze the </tspan></text>
<text
             id="text186"
             style="font-variant:normal;font-weight:normal;font-size:12px;font-family:Georgia;-inkscape-font-specification:Georgia;writing-mode:lr-tb;fill:#000000;fill-opacity:1;fill-rule:nonzero;stroke:none"
             transform="translate(66.921875,452)"><tspan
               id="tspan184"
               y="0"
               x="0 5.4492188 12.433594 18.480469 25.570312 31.681641 37.482422 40.376953 46.845703 50.748047 53.642578 57.785156 64.253906 71.109375 74.625 80.074219 85.259766">change of topics </tspan></text>
<text
             id="text190"
             style="font-variant:normal;font-weight:normal;font-size:12px;font-family:Georgia;-inkscape-font-specification:Georgia;writing-mode:lr-tb;fill:#000000;fill-opacity:1;fill-rule:nonzero;stroke:none"
             transform="translate(82.6875,467)"><tspan
               id="tspan188"
               y="0"
               x="0 6.046875 13.136719 20.027344 22.921875 28.107422 32.25 38.296875 45.386719 50.835938">and stance</tspan></text>
<text
             id="text194"
             style="font-variant:normal;font-weight:normal;font-size:12px;font-family:Georgia;-inkscape-font-specification:Georgia;writing-mode:lr-tb;fill:#000000;fill-opacity:1;fill-rule:nonzero;stroke:none"
             transform="translate(85.96875,481)"><tspan
               id="tspan192"
               y="0"
               x="0 6.46875 12.427734 18.228516 23.144531 26.039062 30.181641 33.697266 44.267578">over time</tspan></text>
</g><g
           transform="matrix(3.0018761,0,0,3.0018761,1.5009381,1.5009381)"
           id="g196"><path
             id="path198"
             style="fill:#dae8fc;fill-opacity:1;fill-rule:nonzero;stroke:none"
             d="m 171,675.41998 c 0,1.31006 -0.0963,2.61695 -0.28889,3.92072 -0.19263,1.30377 -0.48063,2.59802 -0.864,3.88287 -0.38336,1.28491 -0.86026,2.5542 -1.4307,3.8078 -0.57043,1.25366 -1.23166,2.48566 -1.98366,3.69592 -0.75198,1.21033 -1.59115,2.39319 -2.5175,3.54865 -0.92631,1.15533 -1.93535,2.27759 -3.0271,3.36688 -1.09173,1.0893 -2.26092,2.14026 -3.50755,3.1529 -1.24663,1.01269 -2.5647,1.98217 -3.95421,2.9085 -1.38953,0.92633 -2.84379,1.80506 -4.36281,2.63617 -1.51902,0.83106 -3.09549,1.61048 -4.72938,2.33826 -1.6339,0.72784 -3.31735,1.40057 -5.0504,2.01807 -1.73305,0.61761 -3.50731,1.17712 -5.32282,1.6784 -1.81547,0.50134 -3.66345,0.9422 -5.54391,1.32251 -1.88046,0.38019 -3.78434,0.69812 -5.71166,0.95368 -1.92731,0.25561 -3.86877,0.44763 -5.82438,0.57605 -1.95561,0.12841 -3.91595,0.19262 -5.88103,0.19262 -1.96507,0 -3.92541,-0.0642 -5.88103,-0.19262 -1.95561,-0.12842 -3.89708,-0.32044 -5.824399,-0.57605 -1.927315,-0.25556 -3.831207,-0.57349 -5.71167,-0.9538 -1.880455,-0.38031 -3.728432,-0.82111 -5.543922,-1.32245 -1.815484,-0.50134 -3.589753,-1.06079 -5.322792,-1.67834 -1.73304,-0.6175 -3.416504,-1.29023 -5.050408,-2.01807 -1.633896,-0.72778 -3.210358,-1.5072 -4.729385,-2.33832 -1.51902,-0.83105 -2.973282,-1.70978 -4.362801,-2.63611 -1.389511,-0.92633 -2.70758,-1.89581 -3.954216,-2.90844 -1.246631,-1.01276 -2.415817,-2.06372 -3.507557,-3.15302 -1.091732,-1.08923 -2.100765,-2.21155 -3.027099,-3.36688 -0.926327,-1.1554 -1.765496,-2.33826 -2.517498,-3.54859 -0.751999,-1.21026 -1.413216,-2.44226 -1.983647,-3.69592 -0.570431,-1.2536 -1.047333,-2.52289 -1.430698,-3.8078 -0.383362,-1.28485 -0.671349,-2.57916 -0.86396,-3.88293 -0.192608,-1.30371 -0.288914,-2.6106 -0.288918,-3.92066 4e-6,-1.30999 0.09631,-2.61688 0.288921,-3.92065 0.192608,-1.30377 0.480595,-2.59808 0.863961,-3.883 0.383369,-1.28485 0.860267,-2.55407 1.430698,-3.80774 0.570431,-1.25366 1.231644,-2.48565 1.983646,-3.69604 0.752003,-1.21027 1.591172,-2.39313 2.517502,-3.54846 0.926327,-1.15534 1.93536,-2.27765 3.027096,-3.36695 1.09174,-1.08923 2.260922,-2.14019 3.507553,-3.15289 1.246636,-1.01269 2.564705,-1.98224 3.954216,-2.90857 1.389519,-0.92633 2.843788,-1.80505 4.362808,-2.63611 1.51902,-0.83111 3.095482,-1.61059 4.729378,-2.33844 1.633904,-0.72778 3.317368,-1.40045 5.050408,-2.01806 1.733039,-0.6175 3.507308,-1.17694 5.322792,-1.67835 1.81549,-0.50128 3.663467,-0.94208 5.54393,-1.32239 1.880455,-0.38031 3.784347,-0.69824 5.711662,-0.95379 1.927319,-0.25556 3.868789,-0.44751 5.824399,-0.57599 1.95562,-0.12836 3.91596,-0.19251 5.88103,-0.19257 1.96508,6e-5 3.92542,0.0642 5.88103,0.19257 1.95561,0.12842 3.89707,0.32037 5.82438,0.57593 1.92732,0.25555 3.8312,0.57354 5.71166,0.95385 1.88046,0.38031 3.72844,0.82111 5.54391,1.32239 1.81551,0.50141 3.58977,1.06085 5.3228,1.67835 1.73305,0.61761 3.41652,1.29028 5.05042,2.01806 1.63389,0.72785 3.21036,1.50733 4.72938,2.33844 1.51902,0.83106 2.97328,1.70978 4.36281,2.63611 1.38951,0.92633 2.70758,1.89588 3.95421,2.90857 1.24663,1.0127 2.41582,2.06366 3.50755,3.15289 1.09175,1.0893 2.10079,2.21161 3.02712,3.36695 0.92634,1.15533 1.7655,2.33819 2.51748,3.54846 0.752,1.21039 1.41323,2.44238 1.98366,3.69604 0.57044,1.25367 1.04734,2.52289 1.4307,3.80774 0.38337,1.28492 0.67137,2.57923 0.864,3.883 0.19259,1.30377 0.28889,2.61066 0.28889,3.92065 z" /><path
             id="path200"
             style="fill:none;stroke:#6c8ebf;stroke-width:1;stroke-linecap:butt;stroke-linejoin:miter;stroke-miterlimit:10;stroke-dasharray:none;stroke-opacity:1"
             d="m 171,675.41998 c 0,1.31006 -0.0963,2.61695 -0.28889,3.92072 -0.19263,1.30377 -0.48063,2.59802 -0.864,3.88287 -0.38336,1.28491 -0.86026,2.5542 -1.4307,3.8078 -0.57043,1.25366 -1.23166,2.48566 -1.98366,3.69592 -0.75198,1.21033 -1.59115,2.39319 -2.5175,3.54865 -0.92631,1.15533 -1.93535,2.27759 -3.0271,3.36688 -1.09173,1.0893 -2.26092,2.14026 -3.50755,3.1529 -1.24663,1.01269 -2.5647,1.98217 -3.95421,2.9085 -1.38953,0.92633 -2.84379,1.80506 -4.36281,2.63617 -1.51902,0.83106 -3.09549,1.61048 -4.72938,2.33826 -1.6339,0.72784 -3.31735,1.40057 -5.0504,2.01807 -1.73305,0.61761 -3.50731,1.17712 -5.32282,1.6784 -1.81547,0.50134 -3.66345,0.9422 -5.54391,1.32251 -1.88046,0.38019 -3.78434,0.69812 -5.71166,0.95368 -1.92731,0.25561 -3.86877,0.44763 -5.82438,0.57605 -1.95561,0.12841 -3.91595,0.19262 -5.88103,0.19262 -1.96507,0 -3.92541,-0.0642 -5.88103,-0.19262 -1.95561,-0.12842 -3.89708,-0.32044 -5.824399,-0.57605 -1.927315,-0.25556 -3.831207,-0.57349 -5.71167,-0.9538 -1.880455,-0.38031 -3.728432,-0.82111 -5.543922,-1.32245 -1.815484,-0.50134 -3.589753,-1.06079 -5.322792,-1.67834 -1.73304,-0.6175 -3.416504,-1.29023 -5.050408,-2.01807 -1.633896,-0.72778 -3.210358,-1.5072 -4.729385,-2.33832 -1.51902,-0.83105 -2.973282,-1.70978 -4.362801,-2.63611 -1.389511,-0.92633 -2.70758,-1.89581 -3.954216,-2.90844 -1.246631,-1.01276 -2.415817,-2.06372 -3.507557,-3.15302 -1.091732,-1.08923 -2.100765,-2.21155 -3.027099,-3.36688 -0.926327,-1.1554 -1.765496,-2.33826 -2.517498,-3.54859 -0.751999,-1.21026 -1.413216,-2.44226 -1.983647,-3.69592 -0.570431,-1.2536 -1.047333,-2.52289 -1.430698,-3.8078 -0.383362,-1.28485 -0.671349,-2.57916 -0.86396,-3.88293 -0.192608,-1.30371 -0.288914,-2.6106 -0.288918,-3.92066 4e-6,-1.30999 0.09631,-2.61688 0.288921,-3.92065 0.192608,-1.30377 0.480595,-2.59808 0.863961,-3.883 0.383369,-1.28485 0.860267,-2.55407 1.430698,-3.80774 0.570431,-1.25366 1.231644,-2.48565 1.983646,-3.69604 0.752003,-1.21027 1.591172,-2.39313 2.517502,-3.54846 0.926327,-1.15534 1.93536,-2.27765 3.027096,-3.36695 1.09174,-1.08923 2.260922,-2.14019 3.507553,-3.15289 1.246636,-1.01269 2.564705,-1.98224 3.954216,-2.90857 1.389519,-0.92633 2.843788,-1.80505 4.362808,-2.63611 1.51902,-0.83111 3.095482,-1.61059 4.729378,-2.33844 1.633904,-0.72778 3.317368,-1.40045 5.050408,-2.01806 1.733039,-0.6175 3.507308,-1.17694 5.322792,-1.67835 1.81549,-0.50128 3.663467,-0.94208 5.54393,-1.32239 1.880455,-0.38031 3.784347,-0.69824 5.711662,-0.95379 1.927319,-0.25556 3.868789,-0.44751 5.824399,-0.57599 1.95562,-0.12836 3.91596,-0.19251 5.88103,-0.19257 1.96508,6e-5 3.92542,0.0642 5.88103,0.19257 1.95561,0.12842 3.89707,0.32037 5.82438,0.57593 1.92732,0.25555 3.8312,0.57354 5.71166,0.95385 1.88046,0.38031 3.72844,0.82111 5.54391,1.32239 1.81551,0.50141 3.58977,1.06085 5.3228,1.67835 1.73305,0.61761 3.41652,1.29028 5.05042,2.01806 1.63389,0.72785 3.21036,1.50733 4.72938,2.33844 1.51902,0.83106 2.97328,1.70978 4.36281,2.63611 1.38951,0.92633 2.70758,1.89588 3.95421,2.90857 1.24663,1.0127 2.41582,2.06366 3.50755,3.15289 1.09175,1.0893 2.10079,2.21161 3.02712,3.36695 0.92634,1.15533 1.7655,2.33819 2.51748,3.54846 0.752,1.21039 1.41323,2.44238 1.98366,3.69604 0.57044,1.25367 1.04734,2.52289 1.4307,3.80774 0.38337,1.28492 0.67137,2.57923 0.864,3.883 0.19259,1.30377 0.28889,2.61066 0.28889,3.92065 z" /></g><g
           transform="scale(3.0018761)"
           id="g202"><text
             id="text206"
             style="font-variant:normal;font-weight:normal;font-size:12px;font-family:Georgia;-inkscape-font-specification:Georgia;writing-mode:lr-tb;fill:#000000;fill-opacity:1;fill-rule:nonzero;stroke:none"
             transform="translate(78.8125,651)"><tspan
               id="tspan204"
               y="0"
               x="0 8.0507812 15.140625 21.1875 24.621094 30.527344 35.853516 41.654297 44.548828 48.691406 55.675781 61.476562">Analyze the </tspan></text>
<text
             id="text210"
             style="font-variant:normal;font-weight:normal;font-size:12px;font-family:Georgia;-inkscape-font-specification:Georgia;writing-mode:lr-tb;fill:#000000;fill-opacity:1;fill-rule:nonzero;stroke:none"
             transform="translate(63.984375,665)"><tspan
               id="tspan208"
               y="0"
               x="0 4.1425781 10.611328 17.466797 20.982422 26.431641 31.617188 34.511719 40.558594 47.648438 54.539062 57.433594 62.619141 66.761719 72.808594 79.898438 85.347656 91.148438">topics and stance </tspan></text>
<text
             id="text214"
             style="font-variant:normal;font-weight:normal;font-size:12px;font-family:Georgia;-inkscape-font-specification:Georgia;writing-mode:lr-tb;fill:#000000;fill-opacity:1;fill-rule:nonzero;stroke:none"
             transform="translate(86.546875,679)"><tspan
               id="tspan212"
               y="0"
               x="0 6.7207031 12.626953 15.521484 20.707031 24.849609 30.896484 35.039062 40.839844 46.025391">by states </tspan></text>
<text
             id="text218"
             style="font-variant:normal;font-weight:normal;font-size:12px;font-family:Georgia;-inkscape-font-specification:Georgia;writing-mode:lr-tb;fill:#000000;fill-opacity:1;fill-rule:nonzero;stroke:none"
             transform="translate(78.109375,694)"><tspan
               id="tspan216"
               y="0"
               x="0 6.046875 13.136719 20.027344 22.921875 29.777344 36.246094 39.679688 43.195312 47.337891 50.853516 56.302734 62.349609">and political</tspan></text>
<text
             id="text222"
             style="font-variant:normal;font-weight:normal;font-size:12px;font-family:Georgia;-inkscape-font-specification:Georgia;writing-mode:lr-tb;fill:#000000;fill-opacity:1;fill-rule:nonzero;stroke:none"
             transform="translate(81.40625,708)"><tspan
               id="tspan220"
               y="0"
               x="0 6.46875 11.384766 14.900391 20.701172 27.791016 31.933594 37.980469 42.123047 45.638672 52.107422">orientation</tspan></text>
</g><g
           transform="matrix(3.0018761,0,0,3.0018761,1.5009381,1.5009381)"
           id="g224"><path
             id="path226"
             style="fill:none;stroke:#000000;stroke-width:1;stroke-linecap:butt;stroke-linejoin:miter;stroke-miterlimit:10;stroke-dasharray:none;stroke-opacity:1"
             d="m 441,221 h 60 v 343.79999 l -33.63,-0.02" /><path
             id="path228"
             style="fill:#000000;fill-opacity:1;fill-rule:nonzero;stroke:none"
             d="m 462.12,564.78003 7,-3.5 -1.75,3.5 1.75,3.5 z" /><path
             id="path230"
             style="fill:none;stroke:#000000;stroke-width:1;stroke-linecap:butt;stroke-linejoin:miter;stroke-miterlimit:10;stroke-dasharray:none;stroke-opacity:1"
             d="m 462.12,564.78003 7,-3.5 -1.75,3.5 1.75,3.5 z" /><path
             id="path232"
             style="fill:#d5e8d4;fill-opacity:1;fill-rule:nonzero;stroke:none"
             d="m 331,196 h 110 v 50 H 331 Z" /><path
             id="path234"
             style="fill:none;stroke:#82b366;stroke-width:1;stroke-linecap:butt;stroke-linejoin:miter;stroke-miterlimit:10;stroke-dasharray:none;stroke-opacity:1"
             d="m 331,196 h 110 v 50 H 331 Z" /></g><g
           transform="scale(3.0018761)"
           id="g236"><text
             id="text240"
             style="font-variant:normal;font-weight:normal;font-size:12px;font-family:Georgia;-inkscape-font-specification:Georgia;writing-mode:lr-tb;fill:#000000;fill-opacity:1;fill-rule:nonzero;stroke:none"
             transform="translate(336.89063,225)"><tspan
               id="tspan238"
               y="0"
               x="0 11.126953 17.595703 21.738281 25.253906 31.212891 37.259766 41.402344 44.917969 52.007812 58.119141 61.013672 68.4375 77.285156 83.085938 88.886719 93.029297">Motivating Tweets</tspan></text>
</g><g
           transform="matrix(3.0018761,0,0,3.0018761,1.5009381,1.5009381)"
           id="g242"><path
             id="path244"
             style="fill:none;stroke:#000000;stroke-width:1;stroke-linecap:butt;stroke-linejoin:miter;stroke-miterlimit:10;stroke-dasharray:none;stroke-opacity:1"
             d="m 441,356 h 30 v 86 h -65 v 91.40997" /><path
             id="path246"
             style="fill:#000000;fill-opacity:1;fill-rule:nonzero;stroke:none"
             d="m 406,538.65997 -3.5,-7 3.5,1.75 3.5,-1.75 z" /><path
             id="path248"
             style="fill:none;stroke:#000000;stroke-width:1;stroke-linecap:butt;stroke-linejoin:miter;stroke-miterlimit:10;stroke-dasharray:none;stroke-opacity:1"
             d="m 406,538.65997 -3.5,-7 3.5,1.75 3.5,-1.75 z" /><path
             id="path250"
             style="fill:#f8cecc;fill-opacity:1;fill-rule:nonzero;stroke:none"
             d="m 331,331 h 110 v 50 H 331 Z" /><path
             id="path252"
             style="fill:none;stroke:#b85450;stroke-width:1;stroke-linecap:butt;stroke-linejoin:miter;stroke-miterlimit:10;stroke-dasharray:none;stroke-opacity:1"
             d="m 331,331 h 110 v 50 H 331 Z" /></g><g
           transform="scale(3.0018761)"
           id="g254"><text
             id="text258"
             style="font-variant:normal;font-weight:normal;font-size:12px;font-family:Georgia;-inkscape-font-specification:Georgia;writing-mode:lr-tb;fill:#000000;fill-opacity:1;fill-rule:nonzero;stroke:none"
             transform="translate(349.82813,353)"><tspan
               id="tspan256"
               y="0"
               x="0 8.9882812 14.789062 25.359375 31.828125 35.970703 39.486328 45.445312 51.492188 55.634766 59.150391 66.240234">Demotivating</tspan></text>
<text
             id="text262"
             style="font-variant:normal;font-weight:normal;font-size:12px;font-family:Georgia;-inkscape-font-specification:Georgia;writing-mode:lr-tb;fill:#000000;fill-opacity:1;fill-rule:nonzero;stroke:none"
             transform="translate(367.40625,368)"><tspan
               id="tspan260"
               y="0"
               x="0 7.4238281 16.271484 22.072266 27.873047 32.015625">Tweets</tspan></text>
</g><g
           transform="matrix(3.0018761,0,0,3.0018761,1.5009381,1.5009381)"
           id="g264"><path
             id="path266"
             style="fill:none;stroke:#000000;stroke-width:1;stroke-linecap:butt;stroke-linejoin:miter;stroke-miterlimit:10;stroke-dasharray:none;stroke-opacity:1"
             d="m 289.42001,284.95001 20.78,-0.05 V 221.00002 H 324.63" /><path
             id="path268"
             style="fill:#000000;fill-opacity:1;fill-rule:nonzero;stroke:none"
             d="m 329.88,221 -7,3.5 1.75,-3.5 -1.75,-3.5 z" /><path
             id="path270"
             style="fill:none;stroke:#000000;stroke-width:1;stroke-linecap:butt;stroke-linejoin:miter;stroke-miterlimit:10;stroke-dasharray:none;stroke-opacity:1"
             d="m 329.88,221 -7,3.5 1.75,-3.5 -1.75,-3.5 z" /><path
             id="path272"
             style="fill:none;stroke:#000000;stroke-width:1;stroke-linecap:butt;stroke-linejoin:miter;stroke-miterlimit:10;stroke-dasharray:none;stroke-opacity:1"
             d="m 289.42001,284.95001 20.78,-0.05 v 71.10001 H 324.63" /><path
             id="path274"
             style="fill:#000000;fill-opacity:1;fill-rule:nonzero;stroke:none"
             d="m 329.88,356 -7,3.5 1.75,-3.5 -1.75,-3.5 z" /><path
             id="path276"
             style="fill:none;stroke:#000000;stroke-width:1;stroke-linecap:butt;stroke-linejoin:miter;stroke-miterlimit:10;stroke-dasharray:none;stroke-opacity:1"
             d="m 329.88,356 -7,3.5 1.75,-3.5 -1.75,-3.5 z" /><path
             id="path278"
             style="fill:none;stroke:#000000;stroke-width:1;stroke-linecap:butt;stroke-linejoin:miter;stroke-miterlimit:10;stroke-dasharray:none;stroke-opacity:1"
             d="m 66,81 v 32.39" /><path
             id="path280"
             style="fill:#000000;fill-opacity:1;fill-rule:nonzero;stroke:none"
             d="m 66,118.64 -3.5,-7 3.5,1.75 3.5,-1.75 z" /><path
             id="path282"
             style="fill:none;stroke:#000000;stroke-width:1;stroke-linecap:butt;stroke-linejoin:miter;stroke-miterlimit:10;stroke-dasharray:none;stroke-opacity:1"
             d="m 66,118.64 -3.5,-7 3.5,1.75 3.5,-1.75 z" /><path
             id="path284"
             style="fill:#f5f5f5;fill-opacity:1;fill-rule:nonzero;stroke:none"
             d="M 21,16 C 21,7.7199998 41.150002,1 66,1 77.93,1 89.379997,2.5799999 97.82,5.3899999 106.26,8.21 111,12.020001 111,16 V 66 C 111,74.279999 90.849998,81 66,81 41.150002,81 21,74.279999 21,66 Z" /><path
             id="path286"
             style="fill:none;stroke:#666666;stroke-width:1;stroke-linecap:butt;stroke-linejoin:miter;stroke-miterlimit:10;stroke-dasharray:none;stroke-opacity:1"
             d="M 21,16 C 21,7.7199998 41.150002,1 66,1 77.93,1 89.379997,2.5799999 97.82,5.3899999 106.26,8.21 111,12.020001 111,16 V 66 C 111,74.279999 90.849998,81 66,81 41.150002,81 21,74.279999 21,66 Z" /><path
             id="path288"
             style="fill:none;stroke:#666666;stroke-width:1;stroke-linecap:butt;stroke-linejoin:miter;stroke-miterlimit:10;stroke-dasharray:none;stroke-opacity:1"
             d="M 111,16 C 111,24.280001 90.849998,31 66,31 41.150002,31 21,24.280001 21,16" /></g><g
           transform="scale(3.0018761)"
           id="g290"><text
             id="text294"
             style="font-variant:normal;font-weight:normal;font-size:12px;font-family:Georgia;-inkscape-font-specification:Georgia;writing-mode:lr-tb;fill:#333333;fill-opacity:1;fill-rule:nonzero;stroke:none"
             transform="translate(38.640625,51)"><tspan
               id="tspan292"
               y="0"
               x="0 7.7050781 16.634766 24.632812 29.308594 38.296875 42.785156 47.941406">COVID-19</tspan></text>
<text
             id="text298"
             style="font-variant:normal;font-weight:normal;font-size:12px;font-family:Georgia;-inkscape-font-specification:Georgia;writing-mode:lr-tb;fill:#333333;fill-opacity:1;fill-rule:nonzero;stroke:none"
             transform="translate(28.53125,66)"><tspan
               id="tspan296"
               y="0"
               x="0 4.9160156 11.818359 22.388672 28.857422 33.773438 36.667969 43.558594 49.605469 53.748047 59.794922 64.980469 70.78125">rumor dataset</tspan></text>
</g><g
           transform="matrix(3.0018761,0,0,3.0018761,1.5009381,1.5009381)"
           id="g300"><path
             id="path302"
             style="fill:none;stroke:#000000;stroke-width:1;stroke-linecap:butt;stroke-linejoin:miter;stroke-miterlimit:10;stroke-dasharray:none;stroke-opacity:1"
             d="m 186,81 v 19 H 66 v 13.39" /><path
             id="path304"
             style="fill:#000000;fill-opacity:1;fill-rule:nonzero;stroke:none"
             d="m 66,118.64 -3.5,-7 3.5,1.75 3.5,-1.75 z" /><path
             id="path306"
             style="fill:none;stroke:#000000;stroke-width:1;stroke-linecap:butt;stroke-linejoin:miter;stroke-miterlimit:10;stroke-dasharray:none;stroke-opacity:1"
             d="m 66,118.64 -3.5,-7 3.5,1.75 3.5,-1.75 z" /><path
             id="path308"
             style="fill:#f5f5f5;fill-opacity:1;fill-rule:nonzero;stroke:none"
             d="M 141,16 C 141,7.7199998 161.14999,1 186,1 197.92999,1 209.38,2.5799999 217.82001,5.3899999 226.25999,8.21 231,12.020001 231,16 v 50 c 0,8.279999 -20.14999,15 -45,15 -24.85001,0 -45,-6.720001 -45,-15 z" /><path
             id="path310"
             style="fill:none;stroke:#666666;stroke-width:1;stroke-linecap:butt;stroke-linejoin:miter;stroke-miterlimit:10;stroke-dasharray:none;stroke-opacity:1"
             d="M 141,16 C 141,7.7199998 161.14999,1 186,1 197.92999,1 209.38,2.5799999 217.82001,5.3899999 226.25999,8.21 231,12.020001 231,16 v 50 c 0,8.279999 -20.14999,15 -45,15 -24.85001,0 -45,-6.720001 -45,-15 z" /><path
             id="path312"
             style="fill:none;stroke:#666666;stroke-width:1;stroke-linecap:butt;stroke-linejoin:miter;stroke-miterlimit:10;stroke-dasharray:none;stroke-opacity:1"
             d="m 231,16 c 0,8.280001 -20.14999,15 -45,15 -24.85001,0 -45,-6.719999 -45,-15" /></g><g
           transform="scale(3.0018761)"
           id="g314"><text
             id="text318"
             style="font-variant:normal;font-weight:normal;font-size:12px;font-family:Georgia;-inkscape-font-specification:Georgia;writing-mode:lr-tb;fill:#333333;fill-opacity:1;fill-rule:nonzero;stroke:none"
             transform="translate(149.64062,51)"><tspan
               id="tspan316"
               y="0"
               x="0 8.0507812 16.048828 24.099609 32.625 35.519531 42.943359 51.791016 57.591797 63.392578 67.535156">AVAX Tweets</tspan></text>
<text
             id="text322"
             style="font-variant:normal;font-weight:normal;font-size:12px;font-family:Georgia;-inkscape-font-specification:Georgia;writing-mode:lr-tb;fill:#333333;fill-opacity:1;fill-rule:nonzero;stroke:none"
             transform="translate(166.875,66)"><tspan
               id="tspan320"
               y="0"
               x="0 6.890625 12.9375 17.080078 23.126953 28.3125 34.113281">dataset</tspan></text>
</g><g
           transform="matrix(3.0018761,0,0,3.0018761,1.5009381,1.5009381)"
           id="g324"><path
             id="path326"
             style="fill:none;stroke:#000000;stroke-width:1;stroke-linecap:butt;stroke-linejoin:miter;stroke-miterlimit:10;stroke-dasharray:none;stroke-opacity:1"
             d="m 306,81 v 19 H 66 v 13.39" /><path
             id="path328"
             style="fill:#000000;fill-opacity:1;fill-rule:nonzero;stroke:none"
             d="m 66,118.64 -3.5,-7 3.5,1.75 3.5,-1.75 z" /><path
             id="path330"
             style="fill:none;stroke:#000000;stroke-width:1;stroke-linecap:butt;stroke-linejoin:miter;stroke-miterlimit:10;stroke-dasharray:none;stroke-opacity:1"
             d="m 66,118.64 -3.5,-7 3.5,1.75 3.5,-1.75 z" /><path
             id="path332"
             style="fill:#f5f5f5;fill-opacity:1;fill-rule:nonzero;stroke:none"
             d="M 261,16 C 261,7.7199998 281.14999,1 306,1 317.92999,1 329.38,2.5799999 337.82001,5.3899999 346.26001,8.21 351,12.020001 351,16 v 50 c 0,8.279999 -20.14999,15 -45,15 -24.85001,0 -45,-6.720001 -45,-15 z" /><path
             id="path334"
             style="fill:none;stroke:#666666;stroke-width:1;stroke-linecap:butt;stroke-linejoin:miter;stroke-miterlimit:10;stroke-dasharray:none;stroke-opacity:1"
             d="M 261,16 C 261,7.7199998 281.14999,1 306,1 317.92999,1 329.38,2.5799999 337.82001,5.3899999 346.26001,8.21 351,12.020001 351,16 v 50 c 0,8.279999 -20.14999,15 -45,15 -24.85001,0 -45,-6.720001 -45,-15 z" /><path
             id="path336"
             style="fill:none;stroke:#666666;stroke-width:1;stroke-linecap:butt;stroke-linejoin:miter;stroke-miterlimit:10;stroke-dasharray:none;stroke-opacity:1"
             d="m 351,16 c 0,8.280001 -20.14999,15 -45,15 -24.85001,0 -45,-6.719999 -45,-15" /></g><g
           transform="scale(3.0018761)"
           id="g338"><text
             id="text342"
             style="font-variant:normal;font-weight:normal;font-size:12px;font-family:Georgia;-inkscape-font-specification:Georgia;writing-mode:lr-tb;fill:#333333;fill-opacity:1;fill-rule:nonzero;stroke:none"
             transform="translate(279.95313,44)"><tspan
               id="tspan340"
               y="0"
               x="0 8.0507812 14.953125 19.095703 26.080078 31.880859 38.970703 43.113281 46.628906">Authentic</tspan></text>
<text
             id="text346"
             style="font-variant:normal;font-weight:normal;font-size:12px;font-family:Georgia;-inkscape-font-specification:Georgia;writing-mode:lr-tb;fill:#333333;fill-opacity:1;fill-rule:nonzero;stroke:none"
             transform="translate(275.60938,58)"><tspan
               id="tspan344"
               y="0"
               x="0 5.9589844 12.005859 17.455078 22.904297 26.419922 33.509766 39.556641 43.699219 47.214844 53.683594">vaccination</tspan></text>
<text
             id="text350"
             style="font-variant:normal;font-weight:normal;font-size:12px;font-family:Georgia;-inkscape-font-specification:Georgia;writing-mode:lr-tb;fill:#333333;fill-opacity:1;fill-rule:nonzero;stroke:none"
             transform="translate(268.46875,73)"><tspan
               id="tspan348"
               y="0"
               x="0 4.1425781 12.990234 18.791016 24.591797 28.734375 33.919922 36.814453 43.705078 49.751953 53.894531 59.941406 65.126953 70.927734">tweets dataset</tspan></text>
</g><g
           transform="matrix(3.0018761,0,0,3.0018761,1.5009381,1.5009381)"
           id="g352"><path
             id="path354"
             style="fill:none;stroke:#000000;stroke-width:1;stroke-linecap:butt;stroke-linejoin:miter;stroke-miterlimit:10;stroke-dasharray:none;stroke-opacity:1"
             d="M 191,564.78003 H 125.79" /><path
             id="path356"
             style="fill:#000000;fill-opacity:1;fill-rule:nonzero;stroke:none"
             d="m 120.54,564.78003 7,-3.5 -1.75,3.5 1.75,3.5 z" /><path
             id="path358"
             style="fill:none;stroke:#000000;stroke-width:1;stroke-linecap:butt;stroke-linejoin:miter;stroke-miterlimit:10;stroke-dasharray:none;stroke-opacity:1"
             d="m 120.54,564.78003 7,-3.5 -1.75,3.5 1.75,3.5 z" /><path
             id="path360"
             style="fill:#ffffff;fill-opacity:1;fill-rule:nonzero;stroke:none"
             d="m 191,539.78003 h 110 v 50 H 191 Z" /><path
             id="path362"
             style="fill:none;stroke:#000000;stroke-width:1;stroke-linecap:butt;stroke-linejoin:miter;stroke-miterlimit:10;stroke-dasharray:none;stroke-opacity:1"
             d="m 191,539.78003 h 110 v 50 H 191 Z" /></g><g
           transform="scale(3.0018761)"
           id="g364"><text
             id="text368"
             style="font-variant:normal;font-weight:normal;font-size:12px;font-family:Georgia;-inkscape-font-specification:Georgia;writing-mode:lr-tb;fill:#000000;fill-opacity:1;fill-rule:nonzero;stroke:none"
             transform="translate(192.28125,562)"><tspan
               id="tspan366"
               y="0"
               x="0 4.6757812 11.566406 17.367188 24.457031 28.599609 32.115234 36.017578 41.923828 44.818359 48.960938 55.945312 61.746094 64.640625 72.345703 81.275391 89.273438 93.949219 102.9375">Identify the COVID-</tspan></text>
<text
             id="text372"
             style="font-variant:normal;font-weight:normal;font-size:12px;font-family:Georgia;-inkscape-font-specification:Georgia;writing-mode:lr-tb;fill:#000000;fill-opacity:1;fill-rule:nonzero;stroke:none"
             transform="translate(200.625,577)"><tspan
               id="tspan370"
               y="0"
               x="0 5.15625 11.947266 14.841797 20.800781 26.847656 32.296875 37.746094 41.261719 48.351562 54.152344 57.046875 62.232422 66.375 72.421875 79.511719 84.960938">19 vaccine stance</tspan></text>
</g><g
           transform="matrix(3.0018761,0,0,3.0018761,1.5009381,1.5009381)"
           id="g374"><path
             id="path376"
             style="fill:none;stroke:#000000;stroke-width:1;stroke-linecap:butt;stroke-linejoin:miter;stroke-miterlimit:10;stroke-dasharray:none;stroke-opacity:1"
             d="M 351,564.78003 H 307.37" /><path
             id="path378"
             style="fill:#000000;fill-opacity:1;fill-rule:nonzero;stroke:none"
             d="m 302.12,564.78003 7,-3.5 -1.75,3.5 1.75,3.5 z" /><path
             id="path380"
             style="fill:none;stroke:#000000;stroke-width:1;stroke-linecap:butt;stroke-linejoin:miter;stroke-miterlimit:10;stroke-dasharray:none;stroke-opacity:1"
             d="m 302.12,564.78003 7,-3.5 -1.75,3.5 1.75,3.5 z" /><path
             id="path382"
             style="fill:none;stroke:#000000;stroke-width:1;stroke-linecap:butt;stroke-linejoin:miter;stroke-miterlimit:10;stroke-dasharray:none;stroke-opacity:1"
             d="m 251,650.33002 h -10 v -41.04999 h -10.5 l 15.5,-19 15.5,19 H 251 Z" /><path
             id="path384"
             style="fill:#f5f5f5;fill-opacity:1;fill-rule:nonzero;stroke:none"
             d="M 191,650.83002 H 301 V 700 H 191 Z" /><path
             id="path386"
             style="fill:none;stroke:#666666;stroke-width:1;stroke-linecap:butt;stroke-linejoin:miter;stroke-miterlimit:10;stroke-dasharray:none;stroke-opacity:1"
             d="M 191,650.83002 H 301 V 700 H 191 Z" /><path
             id="path388"
             style="fill:none;stroke:#666666;stroke-width:1;stroke-linecap:butt;stroke-linejoin:miter;stroke-miterlimit:10;stroke-dasharray:none;stroke-opacity:1"
             d="M 202,650.83002 V 700 m 88,-49.16998 V 700" /></g><g
           transform="scale(3.0018761)"
           id="g390"><text
             id="text394"
             style="font-variant:normal;font-weight:normal;font-size:12px;font-family:Georgia;-inkscape-font-specification:Georgia;writing-mode:lr-tb;fill:#333333;fill-opacity:1;fill-rule:nonzero;stroke:none"
             transform="translate(228.375,672)"><tspan
               id="tspan392"
               y="0"
               x="0 6.7324219 10.875 16.921875 24.011719 29.460938">Stance</tspan></text>
<text
             id="text398"
             style="font-variant:normal;font-weight:normal;font-size:12px;font-family:Georgia;-inkscape-font-specification:Georgia;writing-mode:lr-tb;fill:#333333;fill-opacity:1;fill-rule:nonzero;stroke:none"
             transform="translate(203.3125,687)"><tspan
               id="tspan396"
               y="0"
               x="0 6.890625 12.691406 16.833984 22.634766 28.083984 32.226562 35.742188 42.210938 49.300781 52.195312 62.765625 69.234375 76.125 81.925781">detection model</tspan></text>
</g></g></g></g></svg>