<?xml version="1.0" encoding="UTF-8" standalone="no"?><!-- Generator: Gravit.io --><svg xmlns="http://www.w3.org/2000/svg" xmlns:xlink="http://www.w3.org/1999/xlink" style="isolation:isolate" viewBox="0 0 500 500" width="500pt" height="500pt"><defs><clipPath id="_clipPath_7eLHl6DrT5yQFlaaeiBj5DmMuBNrfRLH"><rect width="500" height="500"/></clipPath></defs><g clip-path="url(#_clipPath_7eLHl6DrT5yQFlaaeiBj5DmMuBNrfRLH)"><g><path d=" M 320.059 87.16 C 320.059 77.265 344.14 69.234 373.837 69.234 C 388.095 69.234 401.779 71.122 411.865 74.48 C 421.952 77.851 427.616 82.404 427.616 87.16 L 427.616 146.915 C 427.616 156.81 403.535 164.841 373.837 164.841 C 344.14 164.841 320.059 156.81 320.059 146.915 L 320.059 87.16 Z " fill="rgb(245,245,245)"/><path d=" M 320.059 87.16 C 320.059 77.265 344.14 69.234 373.837 69.234 C 388.095 69.234 401.779 71.122 411.865 74.48 C 421.952 77.851 427.616 82.404 427.616 87.16 L 427.616 146.915 C 427.616 156.81 403.535 164.841 373.837 164.841 C 344.14 164.841 320.059 156.81 320.059 146.915 L 320.059 87.16 Z " fill="none" vector-effect="non-scaling-stroke" stroke-width="0.959" stroke="rgb(102,102,102)" stroke-linejoin="miter" stroke-linecap="butt" stroke-miterlimit="10"/><path d=" M 427.616 87.16 C 427.616 97.056 403.535 105.087 373.837 105.087 C 344.14 105.087 320.059 97.056 320.059 87.16" fill="none" vector-effect="non-scaling-stroke" stroke-width="0.959" stroke="rgb(102,102,102)" stroke-linejoin="miter" stroke-linecap="butt" stroke-miterlimit="10"/><path d=" M 326.034 212.154 L 421.641 212.154 L 421.641 307.761 L 326.034 307.761 L 326.034 212.154 Z " fill="rgb(213,232,212)"/><path d=" M 326.034 212.154 L 421.641 212.154 L 421.641 307.761 L 326.034 307.761 L 326.034 212.154 Z " fill="none" vector-effect="non-scaling-stroke" stroke-width="0.959" stroke="rgb(130,179,102)" stroke-linejoin="miter" stroke-linecap="butt" stroke-miterlimit="10"/><line x1="373.837" y1="164.841" x2="373.837" y2="204.542" vector-effect="non-scaling-stroke" stroke-width="0.959" stroke="rgb(0,0,0)" stroke-linejoin="miter" stroke-linecap="butt" stroke-miterlimit="10"/><path d=" M 373.837 210.816 L 369.655 202.45 L 373.837 204.542 L 378.02 202.45 L 373.837 210.816 Z " fill="rgb(0,0,0)"/><path d=" M 373.837 210.816 L 369.655 202.45 L 373.837 204.542 L 378.02 202.45 L 373.837 210.816 Z " fill="none" vector-effect="non-scaling-stroke" stroke-width="0.959" stroke="rgb(0,0,0)" stroke-linejoin="miter" stroke-linecap="butt" stroke-miterlimit="10"/><path d=" M 93.494 27.406 C 64.812 27.406 57.642 51.308 80.587 56.088 C 57.642 66.605 83.456 89.55 102.099 79.99 C 115.006 99.111 158.029 99.111 172.37 79.99 C 201.052 79.99 201.052 60.868 183.126 51.308 C 201.052 32.186 172.37 13.065 147.273 22.626 C 129.347 8.285 100.665 8.285 93.494 27.406 Z " fill="rgb(218,232,252)"/><path d=" M 93.494 27.406 C 64.812 27.406 57.642 51.308 80.587 56.088 C 57.642 66.605 83.456 89.55 102.099 79.99 C 115.006 99.111 158.029 99.111 172.37 79.99 C 201.052 79.99 201.052 60.868 183.126 51.308 C 201.052 32.186 172.37 13.065 147.273 22.626 C 129.347 8.285 100.665 8.285 93.494 27.406 Z " fill="none" vector-effect="non-scaling-stroke" stroke-width="0.959" stroke="rgb(108,142,191)" stroke-linejoin="miter" stroke-linecap="butt" stroke-miterlimit="10"/><path d=" M 72.676 230.571 L 200.359 230.571 L 200.359 289.333 L 72.676 289.333 L 72.676 230.571 Z " fill="rgb(245,245,245)"/><path d=" M 72.676 230.571 L 200.359 230.571 L 200.359 289.333 L 72.676 289.333 L 72.676 230.571 Z " fill="none" vector-effect="non-scaling-stroke" stroke-width="0.959" stroke="rgb(102,102,102)" stroke-linejoin="miter" stroke-linecap="butt" stroke-miterlimit="10"/><path d=" M 85.822 230.571 L 85.822 289.333 M 187.213 230.571 L 187.213 289.333" fill="none" vector-effect="non-scaling-stroke" stroke-width="0.959" stroke="rgb(102,102,102)" stroke-linejoin="miter" stroke-linecap="butt" stroke-miterlimit="10"/><path d=" M 72.676 409.833 L 200.359 409.833 L 200.359 476.423 C 179.078 462.321 157.798 462.321 136.517 476.423 C 115.237 490.526 93.956 490.526 72.676 476.423 L 72.676 421.593 L 72.676 409.833 Z " fill="rgb(213,232,212)"/><path d=" M 72.676 409.833 L 200.359 409.833 L 200.359 476.423 C 179.078 462.321 157.798 462.321 136.517 476.423 C 115.237 490.526 93.956 490.526 72.676 476.423 L 72.676 421.593 L 72.676 409.833 Z " fill="none" vector-effect="non-scaling-stroke" stroke-width="0.959" stroke="rgb(130,179,102)" stroke-linejoin="miter" stroke-linecap="butt" stroke-miterlimit="10"/><line x1="326.034" y1="259.958" x2="207.972" y2="259.958" vector-effect="non-scaling-stroke" stroke-width="0.959" stroke="rgb(0,0,0)" stroke-linejoin="miter" stroke-linecap="butt" stroke-miterlimit="10"/><path d=" M 201.697 259.958 L 210.063 255.775 L 207.972 259.958 L 210.063 264.14 L 201.697 259.958 Z " fill="rgb(0,0,0)"/><path d=" M 201.697 259.958 L 210.063 255.775 L 207.972 259.958 L 210.063 264.14 L 201.697 259.958 Z " fill="none" vector-effect="non-scaling-stroke" stroke-width="0.959" stroke="rgb(0,0,0)" stroke-linejoin="miter" stroke-linecap="butt" stroke-miterlimit="10"/><path d=" M 130.542 289.93 L 142.493 289.93 L 142.493 386.529 L 155.041 386.529 L 136.517 409.236 L 117.994 386.529 L 130.542 386.529 L 130.542 289.93 Z " fill="none" vector-effect="non-scaling-stroke" stroke-width="0.959" stroke="rgb(0,0,0)" stroke-linejoin="miter" stroke-linecap="butt" stroke-miterlimit="10"/><path d=" M 142.493 207.266 L 155.041 207.266 L 136.517 229.973 L 117.994 207.266 L 130.542 207.266 L 130.542 117.635 L 117.994 117.635 L 136.517 94.928 L 155.041 117.635 L 142.493 117.635 L 142.493 207.266 Z " fill="rgb(245,245,245)"/><path d=" M 142.493 207.266 L 155.041 207.266 L 136.517 229.973 L 117.994 207.266 L 130.542 207.266 L 130.542 117.635 L 117.994 117.635 L 136.517 94.928 L 155.041 117.635 L 142.493 117.635 L 142.493 207.266 Z " fill="none" vector-effect="non-scaling-stroke" stroke-width="0.959" stroke="rgb(0,0,0)" stroke-linejoin="miter" stroke-linecap="butt" stroke-miterlimit="10"/></g><g><g clip-path="url(#_clipPath_CJXWWerucTjdZe2ceyQWfUi1D7hIpdRO)"><text transform="matrix(1.195,0,0,1.195,111.786,60.197)" style="font-family:'Gelasio';font-weight:400;font-size:10px;font-style:normal;font-variant-ligatures:none;fill:[Object GRGBColor];stroke:none;">Twitter</text></g><defs><clipPath id="_clipPath_CJXWWerucTjdZe2ceyQWfUi1D7hIpdRO"><rect x="0" y="0" width="35" height="12.695" transform="matrix(1.195,0,0,1.195,111.786,49.109)"/></clipPath></defs><path d=" M 78.529 138.266 L 195.647 138.266 L 195.647 189.655 L 78.529 189.655 L 78.529 138.266 Z " fill="rgb(255,255,255)"/><g clip-path="url(#_clipPath_gTSUvC2a62hGkVAZzvFgeE9otdFezvDq)"><text transform="matrix(1.195,0,0,1.195,87.933,148.802)" style="font-family:'Gelasio';font-weight:400;font-size:9px;font-style:normal;font-variant-ligatures:none;fill:[Object GRGBColor];stroke:none;">API call to Twitter to</text></g><defs><clipPath id="_clipPath_gTSUvC2a62hGkVAZzvFgeE9otdFezvDq"><rect x="0" y="0" width="85" height="11.426" transform="matrix(1.195,0,0,1.195,87.791,138.823)"/></clipPath></defs><g clip-path="url(#_clipPath_rSZG22YsZYGGt6VIrQhZvo5Z2D5SNw05)"><text transform="matrix(1.195,0,0,1.195,85.868,161.947)" style="font-family:'Gelasio';font-weight:400;font-size:9px;font-style:normal;font-variant-ligatures:none;fill:[Object GRGBColor];stroke:none;">get tweet information</text></g><defs><clipPath id="_clipPath_rSZG22YsZYGGt6VIrQhZvo5Z2D5SNw05"><rect x="0" y="0" width="88" height="11.426" transform="matrix(1.195,0,0,1.195,85.868,151.969)"/></clipPath></defs><g clip-path="url(#_clipPath_zRkYar1qsPLezsZgbKw0UlmlBYUD9J85)"><text transform="matrix(1.195,0,0,1.195,125.492,175.093)" style="font-family:'Gelasio';font-weight:400;font-size:9px;font-style:normal;font-variant-ligatures:none;fill:[Object GRGBColor];stroke:none;">from</text></g><defs><clipPath id="_clipPath_zRkYar1qsPLezsZgbKw0UlmlBYUD9J85"><rect x="0" y="0" width="22" height="11.426" transform="matrix(1.195,0,0,1.195,125.492,165.115)"/></clipPath></defs><g clip-path="url(#_clipPath_axQRlu5fiEu5kzFSkmYPaL2rg9Vl4F3n)"><text transform="matrix(1.195,0,0,1.195,114.475,187.044)" style="font-family:'Gelasio';font-weight:400;font-size:9px;font-style:normal;font-variant-ligatures:none;fill:[Object GRGBColor];stroke:none;">tweet IDs</text></g><defs><clipPath id="_clipPath_axQRlu5fiEu5kzFSkmYPaL2rg9Vl4F3n"><rect x="0" y="0" width="40" height="11.426" transform="matrix(1.195,0,0,1.195,114.475,177.066)"/></clipPath></defs><g clip-path="url(#_clipPath_6VhIgaYyPkKF5L3HNHqmZzUWB6fV5DmX)"><text transform="matrix(1.195,0,0,1.195,112.645,266.946)" style="font-family:'Gelasio';font-weight:400;font-size:10px;font-style:normal;font-variant-ligatures:none;fill:[Object GRGBColor];stroke:none;">Hydrator</text></g><defs><clipPath id="_clipPath_6VhIgaYyPkKF5L3HNHqmZzUWB6fV5DmX"><rect x="0" y="0" width="43" height="12.695" transform="matrix(1.195,0,0,1.195,112.645,255.859)"/></clipPath></defs><g clip-path="url(#_clipPath_tLB8YR1Y71PugZJ1fgTGYNY31KiPkQGj)"><text transform="matrix(1.195,0,0,1.195,91.992,446.209)" style="font-family:'Gelasio';font-weight:700;font-size:10px;font-style:normal;font-variant-ligatures:none;fill:[Object GRGBColor];stroke:none;">Twitter Dataset</text></g><defs><clipPath id="_clipPath_tLB8YR1Y71PugZJ1fgTGYNY31KiPkQGj"><rect x="0" y="0" width="82" height="12.695" transform="matrix(1.195,0,0,1.195,91.992,435.122)"/></clipPath></defs><g clip-path="url(#_clipPath_WsbM6kVw0hFKZFHMr6QphuOYX2bcWDzq)"><text transform="matrix(1.195,0,0,1.195,350.635,252.605)" style="font-family:'Gelasio';font-weight:400;font-size:10px;font-style:normal;font-variant-ligatures:none;fill:[Object GRGBColor];stroke:none;">Sampled</text></g><defs><clipPath id="_clipPath_WsbM6kVw0hFKZFHMr6QphuOYX2bcWDzq"><rect x="0" y="0" width="41" height="12.695" transform="matrix(1.195,0,0,1.195,350.635,241.518)"/></clipPath></defs><g clip-path="url(#_clipPath_97c4RmtdfjfsahBjd6ZukHhCGnkyea3a)"><text transform="matrix(1.195,0,0,1.195,338.423,266.946)" style="font-family:'Gelasio';font-weight:400;font-size:10px;font-style:normal;font-variant-ligatures:none;fill:[Object GRGBColor];stroke:none;">~100K Tweet</text></g><defs><clipPath id="_clipPath_97c4RmtdfjfsahBjd6ZukHhCGnkyea3a"><rect x="0" y="0" width="66" height="12.695" transform="matrix(1.195,0,0,1.195,338.423,255.859)"/></clipPath></defs><g clip-path="url(#_clipPath_Fc1fn3o5xkUEp7Ps0HLtLabHCY6cYzYO)"><text transform="matrix(1.195,0,0,1.195,339.3,281.287)" style="font-family:'Gelasio';font-weight:400;font-size:10px;font-style:normal;font-variant-ligatures:none;fill:[Object GRGBColor];stroke:none;">IDs per week</text></g><defs><clipPath id="_clipPath_Fc1fn3o5xkUEp7Ps0HLtLabHCY6cYzYO"><rect x="0" y="0" width="60" height="12.695" transform="matrix(1.195,0,0,1.195,339.3,270.2)"/></clipPath></defs><g clip-path="url(#_clipPath_8I2cSURrK9JFBZTP4l8kFJ6SgUkiDDqr)"><text transform="matrix(1.195,0,0,1.195,330.412,128.316)" style="font-family:'Gelasio';font-weight:400;font-size:10px;font-style:normal;font-variant-ligatures:none;fill:[Object GRGBColor];stroke:none;">Tweet IDs about</text></g><defs><clipPath id="_clipPath_8I2cSURrK9JFBZTP4l8kFJ6SgUkiDDqr"><rect x="0" y="0" width="75" height="12.695" transform="matrix(1.195,0,0,1.195,330.412,117.229)"/></clipPath></defs><g clip-path="url(#_clipPath_KpPUUrV8ZQpTHrWiFKLyBqiTHkCTZ0d0)"><text transform="matrix(1.195,0,0,1.195,350.318,142.657)" style="font-family:'Gelasio';font-weight:400;font-size:10px;font-style:normal;font-variant-ligatures:none;fill:[Object GRGBColor];stroke:none;">Covid-19</text></g><defs><clipPath id="_clipPath_KpPUUrV8ZQpTHrWiFKLyBqiTHkCTZ0d0"><rect x="0" y="0" width="42" height="12.695" transform="matrix(1.195,0,0,1.195,350.318,131.57)"/></clipPath></defs><path d=" M 102.431 329.531 L 171.746 329.531 L 171.746 358.213 L 102.431 358.213 L 102.431 329.531 Z " fill="rgb(255,255,255)"/><g clip-path="url(#_clipPath_GdEsvU5FrJ1hQ3msk2HWns50pD1l3O9l)"><text transform="matrix(1.195,0,0,1.195,102.916,340.015)" style="font-family:'Gelasio';font-weight:400;font-size:9px;font-style:normal;font-variant-ligatures:none;fill:[Object GRGBColor];stroke:none;">Detailed tweet</text></g><defs><clipPath id="_clipPath_GdEsvU5FrJ1hQ3msk2HWns50pD1l3O9l"><rect x="0" y="0" width="60" height="11.426" transform="matrix(1.195,0,0,1.195,102.916,330.037)"/></clipPath></defs><g clip-path="url(#_clipPath_3tvgzKt198DRnU8bLfMGuLIB1rjgik2F)"><text transform="matrix(1.195,0,0,1.195,108.537,354.356)" style="font-family:'Gelasio';font-weight:400;font-size:9px;font-style:normal;font-variant-ligatures:none;fill:[Object GRGBColor];stroke:none;">information</text></g><defs><clipPath id="_clipPath_3tvgzKt198DRnU8bLfMGuLIB1rjgik2F"><rect x="0" y="0" width="50" height="11.426" transform="matrix(1.195,0,0,1.195,108.537,344.378)"/></clipPath></defs></g></g></svg>