<?xml version="1.0" encoding="UTF-8" standalone="no"?><!-- Generator: Gravit.io --><svg xmlns="http://www.w3.org/2000/svg" xmlns:xlink="http://www.w3.org/1999/xlink" style="isolation:isolate" viewBox="0 0 1000 500" width="1000pt" height="500pt"><defs><clipPath id="_clipPath_14MhjKCFKEOxNlesM2vWXXFPgtqzX2xm"><rect width="1000" height="500"/></clipPath></defs><g clip-path="url(#_clipPath_14MhjKCFKEOxNlesM2vWXXFPgtqzX2xm)"><clipPath id="_clipPath_0t0EOn5IkOQ8WxJMfxEBURPFOTYXTQOF"><rect x="66.5" y="29" width="867" height="442" transform="matrix(1,0,0,1,0,0)" fill="rgb(255,255,255)"/></clipPath><g clip-path="url(#_clipPath_0t0EOn5IkOQ8WxJMfxEBURPFOTYXTQOF)"><g><g><rect x="307.658" y="55.532" width="604.516" height="361.454" transform="matrix(1,0,0,1,0,0)" fill="rgb(242,242,242)"/></g><g><g><clipPath id="_clipPath_YLhODzSVfx5o4vdT6EaE7EegIq6Jz3Oj"><rect x="307.658" y="55.532" width="604.516" height="361.454" transform="matrix(1,0,0,1,0,0)" fill="rgb(255,255,255)"/></clipPath><g clip-path="url(#_clipPath_YLhODzSVfx5o4vdT6EaE7EegIq6Jz3Oj)"><g><g><g><g><g><path d=" M 307.658 82.641 L 449.617 82.641 L 449.617 100.714 L 307.658 100.714" fill="none" vector-effect="non-scaling-stroke" stroke-width="2" stroke="rgb(61,153,112)" stroke-opacity="10000" stroke-linejoin="miter" stroke-linecap="butt" stroke-miterlimit="2"/></g></g><g><g><path d=" M 307.658 64.568 L 508.905 64.568 L 508.905 91.677 L 449.617 91.677" fill="none" vector-effect="non-scaling-stroke" stroke-width="2" stroke="rgb(61,153,112)" stroke-opacity="10000" stroke-linejoin="miter" stroke-linecap="butt" stroke-miterlimit="2"/></g></g><g><g><path d=" M 307.658 136.859 L 396.923 136.859 L 396.923 154.932 L 307.658 154.932" fill="none" vector-effect="non-scaling-stroke" stroke-width="2" stroke="rgb(61,153,112)" stroke-opacity="10000" stroke-linejoin="miter" stroke-linecap="butt" stroke-miterlimit="2"/></g></g><g><g><path d=" M 307.658 118.786 L 524.103 118.786 L 524.103 145.895 L 396.923 145.895" fill="none" vector-effect="non-scaling-stroke" stroke-width="2" stroke="rgb(61,153,112)" stroke-opacity="10000" stroke-linejoin="miter" stroke-linecap="butt" stroke-miterlimit="2"/></g></g><g><g><path d=" M 508.905 78.123 L 784.817 78.123 L 784.817 132.341 L 524.103 132.341" fill="none" vector-effect="non-scaling-stroke" stroke-width="2" stroke="rgb(61,153,112)" stroke-opacity="10000" stroke-linejoin="miter" stroke-linecap="butt" stroke-miterlimit="2"/></g></g><g><g><path d=" M 307.658 209.15 L 475.936 209.15 L 475.936 227.223 L 307.658 227.223" fill="none" vector-effect="non-scaling-stroke" stroke-width="2" stroke="rgb(255,65,54)" stroke-opacity="10000" stroke-linejoin="miter" stroke-linecap="butt" stroke-miterlimit="2"/></g></g><g><g><path d=" M 307.658 191.077 L 549.881 191.077 L 549.881 218.186 L 475.936 218.186" fill="none" vector-effect="non-scaling-stroke" stroke-width="2" stroke="rgb(255,65,54)" stroke-opacity="10000" stroke-linejoin="miter" stroke-linecap="butt" stroke-miterlimit="2"/></g></g><g><g><path d=" M 307.658 173.005 L 703.77 173.005 L 703.77 204.632 L 549.881 204.632" fill="none" vector-effect="non-scaling-stroke" stroke-width="2" stroke="rgb(255,65,54)" stroke-opacity="10000" stroke-linejoin="miter" stroke-linecap="butt" stroke-miterlimit="2"/></g></g><g><g><path d=" M 307.658 281.441 L 534.08 281.441 L 534.08 299.514 L 307.658 299.514" fill="none" vector-effect="non-scaling-stroke" stroke-width="2" stroke="rgb(35,205,205)" stroke-opacity="10000" stroke-linejoin="miter" stroke-linecap="butt" stroke-miterlimit="2"/></g></g><g><g><path d=" M 307.658 263.368 L 596.991 263.368 L 596.991 290.477 L 534.08 290.477" fill="none" vector-effect="non-scaling-stroke" stroke-width="2" stroke="rgb(35,205,205)" stroke-opacity="10000" stroke-linejoin="miter" stroke-linecap="butt" stroke-miterlimit="2"/></g></g><g><g><path d=" M 307.658 317.586 L 514.879 317.586 L 514.879 335.659 L 307.658 335.659" fill="none" vector-effect="non-scaling-stroke" stroke-width="2" stroke="rgb(35,205,205)" stroke-opacity="10000" stroke-linejoin="miter" stroke-linecap="butt" stroke-miterlimit="2"/></g></g><g><g><path d=" M 307.658 389.877 L 504.262 389.877 L 504.262 407.95 L 307.658 407.95" fill="none" vector-effect="non-scaling-stroke" stroke-width="2" stroke="rgb(35,205,205)" stroke-opacity="10000" stroke-linejoin="miter" stroke-linecap="butt" stroke-miterlimit="2"/></g></g><g><g><path d=" M 307.658 371.804 L 535.332 371.804 L 535.332 398.914 L 504.262 398.914" fill="none" vector-effect="non-scaling-stroke" stroke-width="2" stroke="rgb(35,205,205)" stroke-opacity="10000" stroke-linejoin="miter" stroke-linecap="butt" stroke-miterlimit="2"/></g></g><g><g><path d=" M 307.658 353.732 L 543.552 353.732 L 543.552 385.359 L 535.332 385.359" fill="none" vector-effect="non-scaling-stroke" stroke-width="2" stroke="rgb(35,205,205)" stroke-opacity="10000" stroke-linejoin="miter" stroke-linecap="butt" stroke-miterlimit="2"/></g></g><g><g><path d=" M 514.879 326.623 L 598.562 326.623 L 598.562 369.545 L 543.552 369.545" fill="none" vector-effect="non-scaling-stroke" stroke-width="2" stroke="rgb(35,205,205)" stroke-opacity="10000" stroke-linejoin="miter" stroke-linecap="butt" stroke-miterlimit="2"/></g></g><g><g><path d=" M 596.991 276.923 L 639.36 276.923 L 639.36 348.084 L 598.562 348.084" fill="none" vector-effect="non-scaling-stroke" stroke-width="2" stroke="rgb(35,205,205)" stroke-opacity="10000" stroke-linejoin="miter" stroke-linecap="butt" stroke-miterlimit="2"/></g></g><g><g><path d=" M 307.658 245.295 L 724.8 245.295 L 724.8 312.503 L 639.36 312.503" fill="none" vector-effect="non-scaling-stroke" stroke-width="2" stroke="rgb(35,205,205)" stroke-opacity="10000" stroke-linejoin="miter" stroke-linecap="butt" stroke-miterlimit="2"/></g></g><g><g><path d=" M 703.77 188.818 L 880.332 188.818 L 880.332 278.899 L 724.8 278.899" fill="none" vector-effect="non-scaling-stroke" stroke-width="2" stroke="rgb(0,116,217)" stroke-opacity="10000" stroke-linejoin="miter" stroke-linecap="butt" stroke-miterlimit="2"/></g></g><g><g><path d=" M 784.817 105.232 L 912.173 105.232 L 912.173 233.864 L 880.332 233.864" fill="none" vector-effect="non-scaling-stroke" stroke-width="2" stroke="rgb(0,116,217)" stroke-opacity="10000" stroke-linejoin="miter" stroke-linecap="butt" stroke-miterlimit="2"/></g></g></g></g></g></g><g><g><path d=" M 638.836 418.116 L 638.836 423.763 M 638.836 54.402 L 638.836 48.755" fill="rgb(0,0,0)" vector-effect="non-scaling-stroke" stroke-width="1" stroke="rgb(68,68,68)" stroke-opacity="10000" stroke-linejoin="miter" stroke-linecap="butt" stroke-miterlimit="4"/><g><clipPath id="_clipPath_HoGwJs6wMoQ4lXTA40KNZtuycfHRlpYp"><rect x="631.328" y="425.541" width="16.862" height="18.466" transform="matrix(1,0,0,1,0,0)" fill="rgb(255,255,255)"/></clipPath><g clip-path="url(#_clipPath_HoGwJs6wMoQ4lXTA40KNZtuycfHRlpYp)"><g><g clip-path="url(#_clipPath_c12LB4eFtF9Qfxuied9wvnLCkW56E0US)"><text transform="matrix(0.887,0,0,1.13,631.328,440.029)" style="font-family:'Georgia';font-weight:400;font-size:12px;font-style:normal;font-variant-ligatures:none;fill:#000000;stroke:none;">0.6</text></g><defs><clipPath id="_clipPath_c12LB4eFtF9Qfxuied9wvnLCkW56E0US"><rect x="0" y="0" width="19" height="16.342" transform="matrix(0.887,0,0,1.13,631.328,425.535)"/></clipPath></defs></g></g></g><path d=" M 307.658 418.116 L 307.658 423.763 M 307.658 54.402 L 307.658 48.755" fill="rgb(0,0,0)" vector-effect="non-scaling-stroke" stroke-width="1" stroke="rgb(68,68,68)" stroke-opacity="10000" stroke-linejoin="miter" stroke-linecap="butt" stroke-miterlimit="4"/><path d=" M 418.05 418.116 L 418.05 423.763 M 418.05 54.402 L 418.05 48.755" fill="rgb(0,0,0)" vector-effect="non-scaling-stroke" stroke-width="1" stroke="rgb(68,68,68)" stroke-opacity="10000" stroke-linejoin="miter" stroke-linecap="butt" stroke-miterlimit="4"/><path d=" M 528.443 418.116 L 528.443 423.763 M 528.443 54.402 L 528.443 48.755" fill="rgb(0,0,0)" vector-effect="non-scaling-stroke" stroke-width="1" stroke="rgb(68,68,68)" stroke-opacity="10000" stroke-linejoin="miter" stroke-linecap="butt" stroke-miterlimit="4"/><path d=" M 749.22 418.116 L 749.22 423.763 M 749.22 54.402 L 749.22 48.755" fill="rgb(0,0,0)" vector-effect="non-scaling-stroke" stroke-width="1" stroke="rgb(68,68,68)" stroke-opacity="10000" stroke-linejoin="miter" stroke-linecap="butt" stroke-miterlimit="4"/><path d=" M 859.614 418.116 L 859.614 423.763 M 859.614 54.402 L 859.614 48.755" fill="rgb(0,0,0)" vector-effect="non-scaling-stroke" stroke-width="1" stroke="rgb(68,68,68)" stroke-opacity="10000" stroke-linejoin="miter" stroke-linecap="butt" stroke-miterlimit="4"/><g><clipPath id="_clipPath_xbJUdtv58cFpSksROLnblmLt9wcxR1rx"><rect x="304.612" y="425.541" width="7.987" height="18.466" transform="matrix(1,0,0,1,0,0)" fill="rgb(255,255,255)"/></clipPath><g clip-path="url(#_clipPath_xbJUdtv58cFpSksROLnblmLt9wcxR1rx)"><g><g clip-path="url(#_clipPath_fdC8xXm6EHF2wNa63lWSFDnZz3koI3JL)"><text transform="matrix(0.887,0,0,1.13,304.612,440.029)" style="font-family:'Georgia';font-weight:400;font-size:12px;font-style:normal;font-variant-ligatures:none;fill:#000000;stroke:none;">0</text></g><defs><clipPath id="_clipPath_fdC8xXm6EHF2wNa63lWSFDnZz3koI3JL"><rect x="0" y="0" width="9" height="16.342" transform="matrix(0.887,0,0,1.13,304.612,425.535)"/></clipPath></defs></g></g></g><g><clipPath id="_clipPath_YZUNjMBKNF58Cg3BRvnzHWPyNydjF0p8"><rect x="410.542" y="425.541" width="16.862" height="18.466" transform="matrix(1,0,0,1,0,0)" fill="rgb(255,255,255)"/></clipPath><g clip-path="url(#_clipPath_YZUNjMBKNF58Cg3BRvnzHWPyNydjF0p8)"><g><g clip-path="url(#_clipPath_vxElN0qyr2Ar1dp2TQiL5a5v8GSP6v11)"><text transform="matrix(0.887,0,0,1.13,410.542,440.029)" style="font-family:'Georgia';font-weight:400;font-size:12px;font-style:normal;font-variant-ligatures:none;fill:#000000;stroke:none;">0.2</text></g><defs><clipPath id="_clipPath_vxElN0qyr2Ar1dp2TQiL5a5v8GSP6v11"><rect x="0" y="0" width="19" height="16.342" transform="matrix(0.887,0,0,1.13,410.542,425.535)"/></clipPath></defs></g></g></g><g><clipPath id="_clipPath_ayrSpq12KNdLl0mrlwXUQgoNHQnYTyB2"><rect x="520.935" y="425.541" width="16.862" height="18.466" transform="matrix(1,0,0,1,0,0)" fill="rgb(255,255,255)"/></clipPath><g clip-path="url(#_clipPath_ayrSpq12KNdLl0mrlwXUQgoNHQnYTyB2)"><g><g clip-path="url(#_clipPath_joF3mCjqMjCHdCIvUqWzF4vhWNg9p6qq)"><text transform="matrix(0.887,0,0,1.13,520.935,440.029)" style="font-family:'Georgia';font-weight:400;font-size:12px;font-style:normal;font-variant-ligatures:none;fill:#000000;stroke:none;">0.4</text></g><defs><clipPath id="_clipPath_joF3mCjqMjCHdCIvUqWzF4vhWNg9p6qq"><rect x="0" y="0" width="19" height="16.342" transform="matrix(0.887,0,0,1.13,520.935,425.535)"/></clipPath></defs></g></g></g><g><clipPath id="_clipPath_7GI9VibV0Pt27hHVzgvO0ceF2lexIq3i"><rect x="741.713" y="425.541" width="16.862" height="18.466" transform="matrix(1,0,0,1,0,0)" fill="rgb(255,255,255)"/></clipPath><g clip-path="url(#_clipPath_7GI9VibV0Pt27hHVzgvO0ceF2lexIq3i)"><g><g clip-path="url(#_clipPath_WDrZIxh2jaxzo8hk0xersJXw25YVZMBT)"><text transform="matrix(0.887,0,0,1.13,741.713,440.029)" style="font-family:'Georgia';font-weight:400;font-size:12px;font-style:normal;font-variant-ligatures:none;fill:#000000;stroke:none;">0.8</text></g><defs><clipPath id="_clipPath_WDrZIxh2jaxzo8hk0xersJXw25YVZMBT"><rect x="0" y="0" width="19" height="16.342" transform="matrix(0.887,0,0,1.13,741.713,425.535)"/></clipPath></defs></g></g></g><g><clipPath id="_clipPath_Lsq9v5MUdKgZIYg4YdHfhBWp4UWJpsBq"><rect x="856.568" y="425.541" width="7.987" height="18.466" transform="matrix(1,0,0,1,0,0)" fill="rgb(255,255,255)"/></clipPath><g clip-path="url(#_clipPath_Lsq9v5MUdKgZIYg4YdHfhBWp4UWJpsBq)"><g><g clip-path="url(#_clipPath_hzeg1nejSdLHMk8jeGkmd2rmEee668pU)"><text transform="matrix(0.887,0,0,1.13,856.568,440.029)" style="font-family:'Georgia';font-weight:400;font-size:12px;font-style:normal;font-variant-ligatures:none;fill:#000000;stroke:none;">1</text></g><defs><clipPath id="_clipPath_hzeg1nejSdLHMk8jeGkmd2rmEee668pU"><rect x="0" y="0" width="9" height="16.342" transform="matrix(0.887,0,0,1.13,856.568,425.535)"/></clipPath></defs></g></g></g></g><g><path d=" M 306.77 281.441 L 302.331 281.441 M 913.061 281.441 L 917.5 281.441" fill="rgb(0,0,0)" vector-effect="non-scaling-stroke" stroke-width="1" stroke="rgb(68,68,68)" stroke-opacity="10000" stroke-linejoin="miter" stroke-linecap="butt" stroke-miterlimit="4"/><path d=" M 306.77 64.568 L 302.331 64.568 M 913.061 64.568 L 917.5 64.568" fill="rgb(0,0,0)" vector-effect="non-scaling-stroke" stroke-width="1" stroke="rgb(68,68,68)" stroke-opacity="10000" stroke-linejoin="miter" stroke-linecap="butt" stroke-miterlimit="4"/><path d=" M 306.77 82.641 L 302.331 82.641 M 913.061 82.641 L 917.5 82.641" fill="rgb(0,0,0)" vector-effect="non-scaling-stroke" stroke-width="1" stroke="rgb(68,68,68)" stroke-opacity="10000" stroke-linejoin="miter" stroke-linecap="butt" stroke-miterlimit="4"/><path d=" M 306.77 100.714 L 302.331 100.714 M 913.061 100.714 L 917.5 100.714" fill="rgb(0,0,0)" vector-effect="non-scaling-stroke" stroke-width="1" stroke="rgb(68,68,68)" stroke-opacity="10000" stroke-linejoin="miter" stroke-linecap="butt" stroke-miterlimit="4"/><path d=" M 306.77 118.786 L 302.331 118.786 M 913.061 118.786 L 917.5 118.786" fill="rgb(0,0,0)" vector-effect="non-scaling-stroke" stroke-width="1" stroke="rgb(68,68,68)" stroke-opacity="10000" stroke-linejoin="miter" stroke-linecap="butt" stroke-miterlimit="4"/><path d=" M 306.77 136.859 L 302.331 136.859 M 913.061 136.859 L 917.5 136.859" fill="rgb(0,0,0)" vector-effect="non-scaling-stroke" stroke-width="1" stroke="rgb(68,68,68)" stroke-opacity="10000" stroke-linejoin="miter" stroke-linecap="butt" stroke-miterlimit="4"/><path d=" M 306.77 154.932 L 302.331 154.932 M 913.061 154.932 L 917.5 154.932" fill="rgb(0,0,0)" vector-effect="non-scaling-stroke" stroke-width="1" stroke="rgb(68,68,68)" stroke-opacity="10000" stroke-linejoin="miter" stroke-linecap="butt" stroke-miterlimit="4"/><path d=" M 306.77 173.005 L 302.331 173.005 M 913.061 173.005 L 917.5 173.005" fill="rgb(0,0,0)" vector-effect="non-scaling-stroke" stroke-width="1" stroke="rgb(68,68,68)" stroke-opacity="10000" stroke-linejoin="miter" stroke-linecap="butt" stroke-miterlimit="4"/><path d=" M 306.77 299.514 L 302.331 299.514 M 913.061 299.514 L 917.5 299.514" fill="rgb(0,0,0)" vector-effect="non-scaling-stroke" stroke-width="1" stroke="rgb(68,68,68)" stroke-opacity="10000" stroke-linejoin="miter" stroke-linecap="butt" stroke-miterlimit="4"/><path d=" M 306.77 317.586 L 302.331 317.586 M 913.061 317.586 L 917.5 317.586" fill="rgb(0,0,0)" vector-effect="non-scaling-stroke" stroke-width="1" stroke="rgb(68,68,68)" stroke-opacity="10000" stroke-linejoin="miter" stroke-linecap="butt" stroke-miterlimit="4"/><path d=" M 306.77 335.659 L 302.331 335.659 M 913.061 335.659 L 917.5 335.659" fill="rgb(0,0,0)" vector-effect="non-scaling-stroke" stroke-width="1" stroke="rgb(68,68,68)" stroke-opacity="10000" stroke-linejoin="miter" stroke-linecap="butt" stroke-miterlimit="4"/><path d=" M 306.77 353.732 L 302.331 353.732 M 913.061 353.732 L 917.5 353.732" fill="rgb(0,0,0)" vector-effect="non-scaling-stroke" stroke-width="1" stroke="rgb(68,68,68)" stroke-opacity="10000" stroke-linejoin="miter" stroke-linecap="butt" stroke-miterlimit="4"/><path d=" M 306.77 371.804 L 302.331 371.804 M 913.061 371.804 L 917.5 371.804" fill="rgb(0,0,0)" vector-effect="non-scaling-stroke" stroke-width="1" stroke="rgb(68,68,68)" stroke-opacity="10000" stroke-linejoin="miter" stroke-linecap="butt" stroke-miterlimit="4"/><path d=" M 306.77 389.877 L 302.331 389.877 M 913.061 389.877 L 917.5 389.877" fill="rgb(0,0,0)" vector-effect="non-scaling-stroke" stroke-width="1" stroke="rgb(68,68,68)" stroke-opacity="10000" stroke-linejoin="miter" stroke-linecap="butt" stroke-miterlimit="4"/><path d=" M 306.77 407.95 L 302.331 407.95 M 913.061 407.95 L 917.5 407.95" fill="rgb(0,0,0)" vector-effect="non-scaling-stroke" stroke-width="1" stroke="rgb(68,68,68)" stroke-opacity="10000" stroke-linejoin="miter" stroke-linecap="butt" stroke-miterlimit="4"/><path d=" M 306.77 263.368 L 302.331 263.368 M 913.061 263.368 L 917.5 263.368" fill="rgb(0,0,0)" vector-effect="non-scaling-stroke" stroke-width="1" stroke="rgb(68,68,68)" stroke-opacity="10000" stroke-linejoin="miter" stroke-linecap="butt" stroke-miterlimit="4"/><path d=" M 306.77 245.295 L 302.331 245.295 M 913.061 245.295 L 917.5 245.295" fill="rgb(0,0,0)" vector-effect="non-scaling-stroke" stroke-width="1" stroke="rgb(68,68,68)" stroke-opacity="10000" stroke-linejoin="miter" stroke-linecap="butt" stroke-miterlimit="4"/><path d=" M 306.77 227.223 L 302.331 227.223 M 913.061 227.223 L 917.5 227.223" fill="rgb(0,0,0)" vector-effect="non-scaling-stroke" stroke-width="1" stroke="rgb(68,68,68)" stroke-opacity="10000" stroke-linejoin="miter" stroke-linecap="butt" stroke-miterlimit="4"/><path d=" M 306.77 209.15 L 302.331 209.15 M 913.061 209.15 L 917.5 209.15" fill="rgb(0,0,0)" vector-effect="non-scaling-stroke" stroke-width="1" stroke="rgb(68,68,68)" stroke-opacity="10000" stroke-linejoin="miter" stroke-linecap="butt" stroke-miterlimit="4"/><path d=" M 306.77 191.077 L 302.331 191.077 M 913.061 191.077 L 917.5 191.077" fill="rgb(0,0,0)" vector-effect="non-scaling-stroke" stroke-width="1" stroke="rgb(68,68,68)" stroke-opacity="10000" stroke-linejoin="miter" stroke-linecap="butt" stroke-miterlimit="4"/></g></g><g><clipPath id="_clipPath_W8iFTIl2v3g9MWY4Q8Wras8APY1y4MqQ"><rect x="103.859" y="398.206" width="192.325" height="17.214" transform="matrix(1,0,0,1,0,0)" fill="rgb(255,255,255)"/></clipPath><g clip-path="url(#_clipPath_W8iFTIl2v3g9MWY4Q8Wras8APY1y4MqQ)"><g><g clip-path="url(#_clipPath_JC1rRxZQxIOsIv6nHqAvVlmVHqUKWV2n)"><text transform="matrix(1.099,0,0,1.13,104.235,410.781)" style="font-family:'Georgia';font-weight:400;font-size:12px;font-style:normal;font-variant-ligatures:none;fill:#000000;stroke:none;">2423_heapatients_vaccined_s...</text></g><defs><clipPath id="_clipPath_JC1rRxZQxIOsIv6nHqAvVlmVHqUKWV2n"><rect x="0" y="0" width="176" height="16.342" transform="matrix(1.099,0,0,1.13,104.235,396.287)"/></clipPath></defs></g></g><clipPath id="_clipPath_1hD7UzqzUZ4Jx8wGASLbQrqx9UeNuAAO"><rect x="103.859" y="380.133" width="192.325" height="17.214" transform="matrix(1,0,0,1,0,0)" fill="rgb(255,255,255)"/></clipPath><g clip-path="url(#_clipPath_1hD7UzqzUZ4Jx8wGASLbQrqx9UeNuAAO)"><g><g clip-path="url(#_clipPath_mdd2ufAJjPXECQhVMEZavD89yZn6Z9fA)"><text transform="matrix(1.099,0,0,1.13,104.126,392.709)" style="font-family:'Georgia';font-weight:400;font-size:12px;font-style:normal;font-variant-ligatures:none;fill:#000000;stroke:none;">41_biden_cancerwith_reorder...</text></g><defs><clipPath id="_clipPath_mdd2ufAJjPXECQhVMEZavD89yZn6Z9fA"><rect x="0" y="0" width="178" height="16.342" transform="matrix(1.099,0,0,1.13,104.126,378.215)"/></clipPath></defs></g></g><clipPath id="_clipPath_cqR1R9CIKdo97rr3gSu0iwKoGQ1yclzP"><rect x="104.959" y="362.061" width="191.226" height="17.214" transform="matrix(1,0,0,1,0,0)" fill="rgb(255,255,255)"/></clipPath><g clip-path="url(#_clipPath_cqR1R9CIKdo97rr3gSu0iwKoGQ1yclzP)"><g><g clip-path="url(#_clipPath_RX1joyOS3NoOsw2i2das1MQpsuoW9y3L)"><text transform="matrix(1.099,0,0,1.13,105.105,374.636)" style="font-family:'Georgia';font-weight:400;font-size:12px;font-style:normal;font-variant-ligatures:none;fill:#000000;stroke:none;">1166_vaccinesooo_testimonyg...</text></g><defs><clipPath id="_clipPath_RX1joyOS3NoOsw2i2das1MQpsuoW9y3L"><rect x="0" y="0" width="181" height="16.342" transform="matrix(1.099,0,0,1.13,105.105,360.142)"/></clipPath></defs></g></g><clipPath id="_clipPath_ErTBrSzw2cH3VuE5Dk12EcjeRdQIsl0W"><rect x="108.256" y="343.988" width="187.929" height="17.214" transform="matrix(1,0,0,1,0,0)" fill="rgb(255,255,255)"/></clipPath><g clip-path="url(#_clipPath_ErTBrSzw2cH3VuE5Dk12EcjeRdQIsl0W)"><g><g clip-path="url(#_clipPath_axeDkFJbuWJDr9tK47twdshatrdFf4HG)"><text transform="matrix(1.099,0,0,1.13,108.647,356.563)" style="font-family:'Georgia';font-weight:400;font-size:12px;font-style:normal;font-variant-ligatures:none;fill:#000000;stroke:none;">5660_vaccineortesting_coure...</text></g><defs><clipPath id="_clipPath_axeDkFJbuWJDr9tK47twdshatrdFf4HG"><rect x="0" y="0" width="174" height="16.342" transform="matrix(1.099,0,0,1.13,108.647,342.069)"/></clipPath></defs></g></g><clipPath id="_clipPath_v3OSkukLYdBcNfGSd5U9pTZLZNZSnlWm"><rect x="122.547" y="325.915" width="173.642" height="17.214" transform="matrix(1,0,0,1,0,0)" fill="rgb(255,255,255)"/></clipPath><g clip-path="url(#_clipPath_v3OSkukLYdBcNfGSd5U9pTZLZNZSnlWm)"><g><g clip-path="url(#_clipPath_97WkLVXzTSBQ4NBU6Zp80R8RcHoGXXAa)"><text transform="matrix(1.099,0,0,1.13,122.998,338.49)" style="font-family:'Georgia';font-weight:400;font-size:12px;font-style:normal;font-variant-ligatures:none;fill:#000000;stroke:none;">14_vaccinated_indoors_fully</text></g><defs><clipPath id="_clipPath_97WkLVXzTSBQ4NBU6Zp80R8RcHoGXXAa"><rect x="0" y="0" width="158" height="16.342" transform="matrix(1.099,0,0,1.13,122.998,323.996)"/></clipPath></defs></g></g><clipPath id="_clipPath_LurvUL8Azxrlq0Cx3Gh3fZjUd0Zhdy6o"><rect x="103.859" y="307.843" width="192.325" height="17.214" transform="matrix(1,0,0,1,0,0)" fill="rgb(255,255,255)"/></clipPath><g clip-path="url(#_clipPath_LurvUL8Azxrlq0Cx3Gh3fZjUd0Zhdy6o)"><g><g clip-path="url(#_clipPath_OAAWpplBFKpk5eT4sHg3W35qICZ02naQ)"><text transform="matrix(1.099,0,0,1.13,103.862,320.418)" style="font-family:'Georgia';font-weight:400;font-size:12px;font-style:normal;font-variant-ligatures:none;fill:#000000;stroke:none;">2022_vaccinating_reopen_dir...</text></g><defs><clipPath id="_clipPath_OAAWpplBFKpk5eT4sHg3W35qICZ02naQ"><rect x="0" y="0" width="174" height="16.342" transform="matrix(1.099,0,0,1.13,103.862,305.924)"/></clipPath></defs></g></g><clipPath id="_clipPath_gpv6Wa1f5CYmn4I4tnaiziaKQDv05eCa"><rect x="98.363" y="289.77" width="197.82" height="17.214" transform="matrix(1,0,0,1,0,0)" fill="rgb(255,255,255)"/></clipPath><g clip-path="url(#_clipPath_gpv6Wa1f5CYmn4I4tnaiziaKQDv05eCa)"><g><g clip-path="url(#_clipPath_LMGnuYl9ZR1bBkxs8mulugfr5yXybLfN)"><text transform="matrix(1.099,0,0,1.13,98.87,302.345)" style="font-family:'Georgia';font-weight:400;font-size:12px;font-style:normal;font-variant-ligatures:none;fill:#000000;stroke:none;">208_myst_covid19get_inconve...</text></g><defs><clipPath id="_clipPath_LMGnuYl9ZR1bBkxs8mulugfr5yXybLfN"><rect x="0" y="0" width="180" height="16.342" transform="matrix(1.099,0,0,1.13,98.87,287.851)"/></clipPath></defs></g></g><clipPath id="_clipPath_NOqP9hOSX1kiGqzovJJ1VyztAC9oun30"><rect x="82.974" y="163.261" width="213.206" height="17.214" transform="matrix(1,0,0,1,0,0)" fill="rgb(255,255,255)"/></clipPath><g clip-path="url(#_clipPath_NOqP9hOSX1kiGqzovJJ1VyztAC9oun30)"><g><g clip-path="url(#_clipPath_yee2yxn4UKX6jvZyxiJyq2BqVZ1vZJ8P)"><text transform="matrix(1.099,0,0,1.13,83.689,175.836)" style="font-family:'Georgia';font-weight:400;font-size:12px;font-style:normal;font-variant-ligatures:none;fill:#000000;stroke:none;">2243_immunocompromised_sacr...</text></g><defs><clipPath id="_clipPath_yee2yxn4UKX6jvZyxiJyq2BqVZ1vZJ8P"><rect x="0" y="0" width="198" height="16.342" transform="matrix(1.099,0,0,1.13,83.689,161.342)"/></clipPath></defs></g></g><clipPath id="_clipPath_EfjP6t675TSliTMvarak3jNs0rVILyaF"><rect x="107.157" y="145.188" width="189.028" height="17.214" transform="matrix(1,0,0,1,0,0)" fill="rgb(255,255,255)"/></clipPath><g clip-path="url(#_clipPath_EfjP6t675TSliTMvarak3jNs0rVILyaF)"><g><g clip-path="url(#_clipPath_QdQBlmSUNoO3tZg01yvo1dofzK3PpPTi)"><text transform="matrix(1.099,0,0,1.13,107.842,157.763)" style="font-family:'Georgia';font-weight:400;font-size:12px;font-style:normal;font-variant-ligatures:none;fill:#000000;stroke:none;">7_vaccinated_vaccine_vaccines</text></g><defs><clipPath id="_clipPath_QdQBlmSUNoO3tZg01yvo1dofzK3PpPTi"><rect x="0" y="0" width="173" height="16.342" transform="matrix(1.099,0,0,1.13,107.842,143.269)"/></clipPath></defs></g></g><clipPath id="_clipPath_DeXB1IfpkHgI2zD7EyGcq9Qqhh17AJyV"><rect x="108.256" y="127.115" width="187.929" height="17.214" transform="matrix(1,0,0,1,0,0)" fill="rgb(255,255,255)"/></clipPath><g clip-path="url(#_clipPath_DeXB1IfpkHgI2zD7EyGcq9Qqhh17AJyV)"><g><g clip-path="url(#_clipPath_zOzXRiJf1gAqnpznlthJXex1s3KbjYay)"><text transform="matrix(1.099,0,0,1.13,108.802,139.69)" style="font-family:'Georgia';font-weight:400;font-size:12px;font-style:normal;font-variant-ligatures:none;fill:#000000;stroke:none;">1_vaccinated_vaccine_vaccines</text></g><defs><clipPath id="_clipPath_zOzXRiJf1gAqnpznlthJXex1s3KbjYay"><rect x="0" y="0" width="173" height="16.342" transform="matrix(1.099,0,0,1.13,108.802,125.196)"/></clipPath></defs></g></g><clipPath id="_clipPath_4hVXVVgIJG1oPSVBeXRSLa55H82oUAO9"><rect x="109.356" y="109.043" width="186.83" height="17.214" transform="matrix(1,0,0,1,0,0)" fill="rgb(255,255,255)"/></clipPath><g clip-path="url(#_clipPath_4hVXVVgIJG1oPSVBeXRSLa55H82oUAO9)"><g><g clip-path="url(#_clipPath_pN6MvAhSwfbWabkeZ5zHnPWoP6QK6PvK)"><text transform="matrix(1.099,0,0,1.13,109.472,121.618)" style="font-family:'Georgia';font-weight:400;font-size:12px;font-style:normal;font-variant-ligatures:none;fill:#000000;stroke:none;">424_covidvaccine_vaccinesid...</text></g><defs><clipPath id="_clipPath_pN6MvAhSwfbWabkeZ5zHnPWoP6QK6PvK"><rect x="0" y="0" width="171" height="16.342" transform="matrix(1.099,0,0,1.13,109.472,107.124)"/></clipPath></defs></g></g><clipPath id="_clipPath_VFHz6sI2mqeWSYl9JiRHbkdE2ajNlehJ"><rect x="112.653" y="90.97" width="183.533" height="17.214" transform="matrix(1,0,0,1,0,0)" fill="rgb(255,255,255)"/></clipPath><g clip-path="url(#_clipPath_VFHz6sI2mqeWSYl9JiRHbkdE2ajNlehJ)"><g><g clip-path="url(#_clipPath_tjRGPoDhAO6LWQT78xRMN8dterAd7C2F)"><text transform="matrix(1.099,0,0,1.13,113.079,103.545)" style="font-family:'Georgia';font-weight:400;font-size:12px;font-style:normal;font-variant-ligatures:none;fill:#000000;stroke:none;">139_unvaccinated_willfully_...</text></g><defs><clipPath id="_clipPath_tjRGPoDhAO6LWQT78xRMN8dterAd7C2F"><rect x="0" y="0" width="165" height="16.342" transform="matrix(1.099,0,0,1.13,113.079,89.051)"/></clipPath></defs></g></g><clipPath id="_clipPath_umvny1wJ6GFzeHU7dkMVlwmdYhiAT9Bm"><rect x="125.844" y="72.897" width="170.345" height="17.214" transform="matrix(1,0,0,1,0,0)" fill="rgb(255,255,255)"/></clipPath><g clip-path="url(#_clipPath_umvny1wJ6GFzeHU7dkMVlwmdYhiAT9Bm)"><g><g clip-path="url(#_clipPath_J2y0mjAVmSXmWqvvPa3QSKSTYHgJZDfc)"><text transform="matrix(1.099,0,0,1.13,126.514,85.472)" style="font-family:'Georgia';font-weight:400;font-size:12px;font-style:normal;font-variant-ligatures:none;fill:#000000;stroke:none;">219_unvaccinated_992_995</text></g><defs><clipPath id="_clipPath_J2y0mjAVmSXmWqvvPa3QSKSTYHgJZDfc"><rect x="0" y="0" width="155" height="16.342" transform="matrix(1.099,0,0,1.13,126.514,70.978)"/></clipPath></defs></g></g><clipPath id="_clipPath_qGNNaIXHvRhsH4ToryIQfotcBoOmpPGd"><rect x="109.356" y="54.825" width="186.83" height="17.214" transform="matrix(1,0,0,1,0,0)" fill="rgb(255,255,255)"/></clipPath><g clip-path="url(#_clipPath_qGNNaIXHvRhsH4ToryIQfotcBoOmpPGd)"><g><g clip-path="url(#_clipPath_fApyhFExR01HaOpa4VRmuAt9pTkFtksB)"><text transform="matrix(1.099,0,0,1.13,110.077,67.4)" style="font-family:'Georgia';font-weight:400;font-size:12px;font-style:normal;font-variant-ligatures:none;fill:#000000;stroke:none;">922_getvaccinated_getvaccin...</text></g><defs><clipPath id="_clipPath_fApyhFExR01HaOpa4VRmuAt9pTkFtksB"><rect x="0" y="0" width="173" height="16.342" transform="matrix(1.099,0,0,1.13,110.077,52.906)"/></clipPath></defs></g></g><clipPath id="_clipPath_4MgvB6KwJy69zk8jcBKYU6qF2SbwvoBl"><rect x="100.562" y="271.697" width="195.622" height="17.214" transform="matrix(1,0,0,1,0,0)" fill="rgb(255,255,255)"/></clipPath><g clip-path="url(#_clipPath_4MgvB6KwJy69zk8jcBKYU6qF2SbwvoBl)"><g><g clip-path="url(#_clipPath_vj0iZMPLJ213eNg7QAs4DMqQrycBDC3x)"><text transform="matrix(1.099,0,0,1.13,100.686,284.272)" style="font-family:'Georgia';font-weight:400;font-size:12px;font-style:normal;font-variant-ligatures:none;fill:#000000;stroke:none;">4204_vaccinesaid_gonna_blac...</text></g><defs><clipPath id="_clipPath_vj0iZMPLJ213eNg7QAs4DMqQrycBDC3x"><rect x="0" y="0" width="178" height="16.342" transform="matrix(1.099,0,0,1.13,100.686,269.778)"/></clipPath></defs></g></g><clipPath id="_clipPath_mML1OiLHjGKKwmL4m97ms8b0M6MEqyaj"><rect x="122.547" y="253.624" width="173.642" height="17.214" transform="matrix(1,0,0,1,0,0)" fill="rgb(255,255,255)"/></clipPath><g clip-path="url(#_clipPath_mML1OiLHjGKKwmL4m97ms8b0M6MEqyaj)"><g><g clip-path="url(#_clipPath_Ow9nejbTKWswCpbEsArZuVrMKaTWve6f)"><text transform="matrix(1.099,0,0,1.13,123.049,266.199)" style="font-family:'Georgia';font-weight:400;font-size:12px;font-style:normal;font-variant-ligatures:none;fill:#000000;stroke:none;">6243_polio_gatesfunded_un</text></g><defs><clipPath id="_clipPath_Ow9nejbTKWswCpbEsArZuVrMKaTWve6f"><rect x="0" y="0" width="159" height="16.342" transform="matrix(1.099,0,0,1.13,123.049,251.705)"/></clipPath></defs></g></g><clipPath id="_clipPath_NWRTyrJ7nMFVOiLHY0II3Kf2A6qeB4rK"><rect x="124.745" y="235.552" width="171.444" height="17.214" transform="matrix(1,0,0,1,0,0)" fill="rgb(255,255,255)"/></clipPath><g clip-path="url(#_clipPath_NWRTyrJ7nMFVOiLHY0II3Kf2A6qeB4rK)"><g><g clip-path="url(#_clipPath_AuAcCdyDsVgcHV2jD51TWShlH3wByMqs)"><text transform="matrix(1.099,0,0,1.13,125.574,248.127)" style="font-family:'Georgia';font-weight:400;font-size:12px;font-style:normal;font-variant-ligatures:none;fill:#000000;stroke:none;">4278_bakker_vaccinate_jim</text></g><defs><clipPath id="_clipPath_AuAcCdyDsVgcHV2jD51TWShlH3wByMqs"><rect x="0" y="0" width="154" height="16.342" transform="matrix(1.099,0,0,1.13,125.574,233.633)"/></clipPath></defs></g></g><clipPath id="_clipPath_5ui9WTIvJceAsxHNqZCkCQu0HOcF4rbQ"><rect x="117.05" y="217.479" width="179.137" height="17.214" transform="matrix(1,0,0,1,0,0)" fill="rgb(255,255,255)"/></clipPath><g clip-path="url(#_clipPath_5ui9WTIvJceAsxHNqZCkCQu0HOcF4rbQ)"><g><g clip-path="url(#_clipPath_BrUmqARpEQlCTeoEH2n4Gw1NMpWq3YpF)"><text transform="matrix(1.099,0,0,1.13,117.181,230.054)" style="font-family:'Georgia';font-weight:400;font-size:12px;font-style:normal;font-variant-ligatures:none;fill:#000000;stroke:none;">174_immunity_natural_itthat</text></g><defs><clipPath id="_clipPath_BrUmqARpEQlCTeoEH2n4Gw1NMpWq3YpF"><rect x="0" y="0" width="163" height="16.342" transform="matrix(1.099,0,0,1.13,117.181,215.56)"/></clipPath></defs></g></g><clipPath id="_clipPath_Fd7f5TC3dhTj5yNP6CecqBoHqBGA6jPh"><rect x="99.462" y="199.406" width="196.721" height="17.214" transform="matrix(1,0,0,1,0,0)" fill="rgb(255,255,255)"/></clipPath><g clip-path="url(#_clipPath_Fd7f5TC3dhTj5yNP6CecqBoHqBGA6jPh)"><g><g clip-path="url(#_clipPath_j8wIFKWPuGvfh65WEGk7PxQ0KWHpFIdV)"><text transform="matrix(1.099,0,0,1.13,99.508,211.981)" style="font-family:'Georgia';font-weight:400;font-size:12px;font-style:normal;font-variant-ligatures:none;fill:#000000;stroke:none;">3642_immunity_natural_vacci...</text></g><defs><clipPath id="_clipPath_j8wIFKWPuGvfh65WEGk7PxQ0KWHpFIdV"><rect x="0" y="0" width="176" height="16.342" transform="matrix(1.099,0,0,1.13,99.508,197.487)"/></clipPath></defs></g></g><clipPath id="_clipPath_cD2GAKD92dDtKlCUMF9Q8IimqZhju9y1"><rect x="76.378" y="181.334" width="219.8" height="17.214" transform="matrix(1,0,0,1,0,0)" fill="rgb(255,255,255)"/></clipPath><g clip-path="url(#_clipPath_cD2GAKD92dDtKlCUMF9Q8IimqZhju9y1)"><g><g clip-path="url(#_clipPath_S6QVhAHszQJF7AXoQeNJ4gJwEPrFARpR)"><text transform="matrix(1.099,0,0,1.13,76.449,193.909)" style="font-family:'Georgia';font-weight:400;font-size:12px;font-style:normal;font-variant-ligatures:none;fill:#000000;stroke:none;">369_immune_immunity_autoimm...</text></g><defs><clipPath id="_clipPath_S6QVhAHszQJF7AXoQeNJ4gJwEPrFARpR"><rect x="0" y="0" width="200" height="16.342" transform="matrix(1.099,0,0,1.13,76.449,179.415)"/></clipPath></defs></g></g></g></g></g></g></g></g></svg>